<svg width="79" height="78" viewBox="0 0 79 78" fill="none" xmlns="http://www.w3.org/2000/svg">
<path d="M78 39C78 59.9748 60.775 77 39.5 77C18.225 77 1 59.9748 1 39C1 18.0252 18.225 1 39.5 1C60.775 1 78 18.0252 78 39Z" fill="#005077" stroke="white" stroke-width="2"/>
<circle cx="21" cy="28" r="6" stroke="white" stroke-width="2"/>
<circle cx="40" cy="28" r="6" stroke="white" stroke-width="2"/>
<circle cx="59" cy="28" r="6" stroke="white" stroke-width="2"/>
<path d="M11 52.6322C11 50.6397 11.4154 48.9027 12.384 47.1286C14.185 43.8301 17.5524 40.6983 21.31 39.8751C27.795 38.4544 33.281 45.984 32.6581 51.93C32.5483 52.9785 32.122 53.9634 31.4849 54.798C30.8863 55.582 30.1511 55.8098 29.1926 55.8782C26.3558 56.0806 25.7552 53.2277 26.4083 50.9849C26.9151 49.2444 28.1302 47.7548 29.2953 46.4102C30.9758 44.4709 32.8763 42.7709 35.0045 41.3333C37.687 39.5213 41.4743 37.2997 44.8874 38.2116C46.2079 38.5644 47.3723 39.4767 48.2772 40.4692C49.7531 42.0878 51.0884 44.0736 51.9914 46.07C53.5909 49.6063 53.4294 54.1346 50.5479 56.9422C49.1265 58.327 45.201 60.2797 43.8169 57.8387C42.9562 56.3206 43.1169 54.2597 43.7088 52.6862C44.6156 50.2757 46.266 47.9903 47.8609 45.989C49.6536 43.7396 52.1656 41.1104 55.1812 40.7338C56.0899 40.6203 57.1188 40.5551 57.8574 41.1875C58.8837 42.0663 59.4771 43.4239 60.0091 44.6279C61.4589 47.9087 63.2658 51.1391 65.3993 54.0256C66.0972 54.9698 66.9048 55.8486 67.8106 56.5965C68.2333 56.9455 68.6943 57.2294 69 57.6875" stroke="white" stroke-width="2"/>
</svg>
