<svg width="79" height="70" viewBox="0 0 79 70" fill="none" xmlns="http://www.w3.org/2000/svg">
<circle cx="16" cy="54" r="16" fill="#E6F1F8"/>
<path fill-rule="evenodd" clip-rule="evenodd" d="M16.0013 48.75C17.0348 48.75 17.8755 47.9085 17.8755 46.875C17.8755 45.8415 17.0348 45 16.0013 45C14.9678 45 14.1255 45.8415 14.1255 46.875C14.1255 47.9085 14.9678 48.75 16.0013 48.75ZM11.875 52.875C11.875 53.9085 11.0343 54.75 10.0008 54.75C8.96725 54.75 8.125 53.9085 8.125 52.875C8.125 51.8415 8.96725 51 10.0008 51C11.0343 51 11.875 51.8415 11.875 52.875ZM8.5 59.8598C7.12 59.3168 7 57.6668 7 55.875V55.5H13V55.875C13 57.666 12.88 59.316 11.5 59.8598V63H8.5V59.8598ZM22.0002 54.75C23.0337 54.75 23.8745 53.9085 23.8745 52.875C23.8745 51.8415 23.0337 51 22.0002 51C20.9667 51 20.1245 51.8415 20.1245 52.875C20.1245 53.9085 20.9667 54.75 22.0002 54.75ZM18.9995 55.875V55.5H24.9995V55.875C24.9995 57.666 24.8795 59.316 23.4995 59.8598V63H20.4995V59.8598C19.1195 59.3168 18.9995 57.6668 18.9995 55.875ZM13.0005 49.5H19.0005V49.875C19.0005 51.666 18.8805 53.316 17.5005 53.8598V57H14.5005V53.8598C13.1205 53.3168 13.0005 51.6667 13.0005 49.875V49.5Z" fill="#005077"/>
<circle cx="63" cy="54" r="16" fill="#E6F1F8"/>
<path fill-rule="evenodd" clip-rule="evenodd" d="M63.0013 48.75C64.0348 48.75 64.8755 47.9085 64.8755 46.875C64.8755 45.8415 64.0348 45 63.0013 45C61.9678 45 61.1255 45.8415 61.1255 46.875C61.1255 47.9085 61.9678 48.75 63.0013 48.75ZM58.875 52.875C58.875 53.9085 58.0343 54.75 57.0008 54.75C55.9672 54.75 55.125 53.9085 55.125 52.875C55.125 51.8415 55.9672 51 57.0008 51C58.0343 51 58.875 51.8415 58.875 52.875ZM55.5 59.8598C54.12 59.3168 54 57.6668 54 55.875V55.5H60V55.875C60 57.666 59.88 59.316 58.5 59.8598V63H55.5V59.8598ZM69.0002 54.75C70.0337 54.75 70.8745 53.9085 70.8745 52.875C70.8745 51.8415 70.0337 51 69.0002 51C67.9667 51 67.1245 51.8415 67.1245 52.875C67.1245 53.9085 67.9667 54.75 69.0002 54.75ZM65.9995 55.875V55.5H71.9995V55.875C71.9995 57.666 71.8795 59.316 70.4995 59.8598V63H67.4995V59.8598C66.1195 59.3168 65.9995 57.6668 65.9995 55.875ZM60.0005 49.5H66.0005V49.875C66.0005 51.666 65.8805 53.316 64.5005 53.8598V57H61.5005V53.8598C60.1205 53.3168 60.0005 51.6667 60.0005 49.875V49.5Z" fill="#005077"/>
<circle cx="40" cy="16" r="16" fill="#E6F1F8"/>
<path fill-rule="evenodd" clip-rule="evenodd" d="M40.0013 10.75C41.0348 10.75 41.8755 9.9085 41.8755 8.875C41.8755 7.8415 41.0348 7 40.0013 7C38.9678 7 38.1255 7.8415 38.1255 8.875C38.1255 9.9085 38.9678 10.75 40.0013 10.75ZM35.875 14.875C35.875 15.9085 35.0343 16.75 34.0008 16.75C32.9672 16.75 32.125 15.9085 32.125 14.875C32.125 13.8415 32.9672 13 34.0008 13C35.0343 13 35.875 13.8415 35.875 14.875ZM32.5 21.8598C31.12 21.3168 31 19.6668 31 17.875V17.5H37V17.875C37 19.666 36.88 21.316 35.5 21.8598V25H32.5V21.8598ZM46.0002 16.75C47.0337 16.75 47.8745 15.9085 47.8745 14.875C47.8745 13.8415 47.0337 13 46.0002 13C44.9667 13 44.1245 13.8415 44.1245 14.875C44.1245 15.9085 44.9667 16.75 46.0002 16.75ZM42.9995 17.875V17.5H48.9995V17.875C48.9995 19.666 48.8795 21.316 47.4995 21.8598V25H44.4995V21.8598C43.1195 21.3168 42.9995 19.6668 42.9995 17.875ZM37.0005 11.5H43.0005V11.875C43.0005 13.666 42.8805 15.316 41.5005 15.8598V19H38.5005V15.8598C37.1205 15.3168 37.0005 13.6667 37.0005 11.875V11.5Z" fill="#005077"/>
<line x1="47.3345" y1="29.6284" x2="57.3345" y2="38.6284" stroke="#005077"/>
<line x1="30.9527" y1="30.3569" x2="21.3498" y2="39.7794" stroke="#005077"/>
<line x1="47" y1="57.5" x2="31" y2="57.5" stroke="#005077"/>
</svg>
