<svg width="65" height="65" viewBox="0 0 65 65" fill="none" xmlns="http://www.w3.org/2000/svg">
<circle cx="32.5" cy="32.5" r="32" fill="white" stroke="#005077"/>
<path fill-rule="evenodd" clip-rule="evenodd" d="M26.25 22.5455L26.25 19.1364C26.25 18.5088 26.7164 18 27.2917 18C27.867 18 28.3333 18.5088 28.3333 19.1364V22.5455C28.3333 23.1731 27.867 23.6818 27.2917 23.6818C26.7164 23.6818 26.25 23.1731 26.25 22.5455ZM24.1667 22.5455V21.4091L22 21.4091C20.8954 21.4091 20 22.3045 20 23.4091V29.3636H45V23.4091C45 22.3045 44.1046 21.4091 43 21.4091H40.8333V22.5455C40.8333 24.4282 39.4342 25.9545 37.7083 25.9545C35.9824 25.9545 34.5833 24.4282 34.5833 22.5455V21.4091L30.4167 21.4091V22.5455C30.4167 24.4282 29.0176 25.9545 27.2917 25.9545C25.5658 25.9545 24.1667 24.4282 24.1667 22.5455ZM20 31.6364H45V43.2727C45 44.3773 44.1046 45.2727 43 45.2727H22C20.8954 45.2727 20 44.3773 20 43.2727V31.6364ZM25.2083 33.9091C24.633 33.9091 24.1667 34.4179 24.1667 35.0455C24.1667 35.6731 24.633 36.1818 25.2083 36.1818H27.2917C27.867 36.1818 28.3333 35.6731 28.3333 35.0455C28.3333 34.4179 27.867 33.9091 27.2917 33.9091L25.2083 33.9091ZM25.2083 38.4545C24.633 38.4545 24.1667 38.9633 24.1667 39.5909C24.1667 40.2185 24.633 40.7273 25.2083 40.7273L27.2917 40.7273C27.867 40.7273 28.3333 40.2185 28.3333 39.5909C28.3333 38.9633 27.867 38.4545 27.2917 38.4545H25.2083ZM31.4583 33.9091L33.5417 33.9091C34.117 33.9091 34.5833 34.4179 34.5833 35.0455C34.5833 35.6731 34.117 36.1818 33.5417 36.1818H31.4583C30.883 36.1818 30.4167 35.6731 30.4167 35.0455C30.4167 34.4179 30.883 33.9091 31.4583 33.9091ZM33.5417 38.4545H31.4583C30.883 38.4545 30.4167 38.9633 30.4167 39.5909C30.4167 40.2185 30.883 40.7273 31.4583 40.7273L33.5417 40.7273C34.117 40.7273 34.5833 40.2185 34.5833 39.5909C34.5833 38.9633 34.117 38.4545 33.5417 38.4545ZM36.6667 35.0455C36.6667 34.4179 37.133 33.9091 37.7083 33.9091L39.7917 33.9091C40.367 33.9091 40.8333 34.4179 40.8333 35.0455C40.8333 35.6731 40.367 36.1818 39.7917 36.1818H37.7083C37.133 36.1818 36.6667 35.6731 36.6667 35.0455ZM40.8333 39.5909C40.8333 38.9633 40.367 38.4545 39.7917 38.4545H37.7083C37.133 38.4545 36.6667 38.9633 36.6667 39.5909C36.6667 40.2185 37.133 40.7273 37.7083 40.7273L39.7917 40.7273C40.367 40.7273 40.8333 40.2185 40.8333 39.5909ZM36.6667 19.1364V22.5455C36.6667 23.1731 37.133 23.6818 37.7083 23.6818C38.2836 23.6818 38.75 23.1731 38.75 22.5455V19.1364C38.75 18.5088 38.2836 18 37.7083 18C37.133 18 36.6667 18.5088 36.6667 19.1364Z" fill="#005077"/>
</svg>
