<?xml version="1.0" encoding="UTF-8"?>
<svg fill="none" viewBox="0 0 295 54" xmlns="http://www.w3.org/2000/svg">
<path d="m1 3.5602c2.5 8e-5 22.264 19.962 48.875 19.962s42.016-19.962 46.778-19.962c4.7623 1e-5 18.487 19.962 48.739 19.962 26.89 0 42.016-19.962 45.657-19.962 3.642-8e-5 20.168 19.962 49.299 19.962 29.132 0 50.652-19.962 53.652-19.962" stroke="#CDCDCD" stroke-linecap="round" stroke-width="2"/>
<g filter="url(#ab)">
<path d="m233.62 34.834c0.175-2.8391 2.7-6.0626 3.941-7.3195h2.189c0.657 0 3.722 4.2142 3.284 7.3195-0.438 3.1052-4.379 8.8721-5.473 8.2067-1.095-0.6654-4.16-4.6579-3.941-8.2067z" fill="#FB2828"/>
</g>
<path d="m233.41 35.278c0.175-2.8391 2.7-6.0626 3.941-7.3195h2.189c0.657 0 3.722 4.2142 3.284 7.3195-0.438 3.1052-4.379 8.8721-5.473 8.2067-1.095-0.6654-4.16-4.6579-3.941-8.2067z" fill="#FB2828"/>
<g filter="url(#q)">
<path d="m235.59 32.779c0.105-1.6977 1.623-3.6252 2.369-4.3768h1.316c0.395 0 2.238 2.52 1.975 4.3768s-2.633 5.3051-3.291 4.9072-2.501-2.7852-2.369-4.9072z" fill="#FF5340"/>
</g>
<path d="m237.12 25.075v2.4398h3.284v-2.4398h-3.284z" fill="#141414" stroke="#000" stroke-linejoin="round" stroke-width="2"/>
<g filter="url(#h)">
<path d="m176.28 27.001c-1.328-2.6354-0.644-6.4346-0.136-8.0047l2.062-0.7594c0.619-0.2278 5.722 2.5307 6.942 5.4986s0.54 9.5645-0.841 9.3408-6.367-2.7811-8.027-6.0753z" fill="#FB2828"/>
</g>
<path d="m176.32 27.475c-1.328-2.6354-0.644-6.4345-0.136-8.0047l2.062-0.7594c0.619-0.2278 5.722 2.5307 6.942 5.4986s0.54 9.5646-0.841 9.3408c-1.381-0.2237-6.368-2.7811-8.027-6.0753z" fill="#FB2828"/>
<g filter="url(#g)">
<path d="m177.06 24.449c-0.793-1.576-0.377-3.8506-0.069-4.7909l1.24-0.4565c0.372-0.137 3.432 1.509 4.161 3.2842 0.728 1.7752 0.309 5.7241-0.52 5.5916-0.829-0.1326-3.82-1.6583-4.812-3.6284z" fill="#FF5340"/>
</g>
<path d="m174.44 16.928 1.282 2.2108 3.09-1.1382-1.281-2.2108-3.091 1.1382z" fill="#141414" stroke="#000" stroke-linejoin="round" stroke-width="2"/>
<g filter="url(#f)">
<path d="m111.47 27.657c0.887-2.7506 4.196-5.4958 5.739-6.5246l2.167 0.3556c0.649 0.1067 2.622 4.7296 1.408 7.6981-1.214 2.9684-6.563 7.9733-7.479 7.1441-0.916-0.8291-2.944-5.235-1.835-8.6732z" fill="#FB2828"/>
</g>
<path d="m111.15 28.058c0.888-2.7506 4.197-5.4958 5.74-6.5246l2.166 0.3556c0.65 0.1067 2.623 4.7297 1.409 7.6981-1.214 2.9685-6.564 7.9733-7.479 7.1442-0.916-0.8292-2.945-5.235-1.836-8.6733z" fill="#FB2828"/>
<g filter="url(#e)">
<path d="m113.95 25.965c0.531-1.6446 2.518-3.2848 3.444-3.8994l1.303 0.2138c0.391 0.0642 1.58 2.8301 0.853 4.6049-0.728 1.7748-3.939 4.7654-4.49 4.269s-1.774-3.1325-1.11-5.1883z" fill="#FF5340"/>
</g>
<path d="m117.4 18.667-0.613 2.3865 3.246 0.5331 0.613-2.3866-3.246-0.533z" fill="#141414" stroke="#000" stroke-linejoin="round" stroke-width="2"/>
<g filter="url(#d)">
<path d="m5.7065 22.777c0.75677-2.7756 3.9271-5.6192 5.4176-6.6941l2.1752 0.2898c0.6525 0.0869 2.8326 4.647 1.7602 7.6502s-6.1714 8.1667-7.1224 7.3659c-0.95097-0.8009-3.1766-5.1423-2.2306-8.6118z" fill="#FB2828"/>
</g>
<path d="m5.2065 21.592c0.75677-2.7756 3.9271-5.6192 5.4177-6.694l2.1751 0.2897c0.6525 0.0869 2.8326 4.647 1.7602 7.6503-1.0724 3.0032-6.1714 8.1667-7.1223 7.3658-0.95097-0.8008-3.1766-5.1422-2.2306-8.6118z" fill="#FB2828"/>
<g filter="url(#c)">
<path d="m7.8929 19.416c0.45308-1.6597 2.357-3.3589 3.2523-4.0011l1.3077 0.1742c0.3923 0.0522 1.7058 2.7803 1.0632 4.5759-0.6427 1.7956-3.7044 4.8815-4.2766 4.4022-0.57218-0.4794-1.9129-3.0767-1.3466-5.1512z" fill="#FF5340"/>
</g>
<path d="m10.999 12.02-0.5004 2.4037 3.2595 0.4343 0.5003-2.4037-3.2594-0.4343z" fill="#141414" stroke="#000" stroke-linejoin="round" stroke-width="2"/>
<g filter="url(#b)">
<path d="m277.59 25.065c-1.075-2.7074-0.057-6.4475 0.585-7.9791l2.106-0.6269c0.632-0.188 5.426 2.8786 6.365 5.9103 0.938 3.0317-0.327 9.5576-1.671 9.2483-1.344-0.3094-6.041-3.1684-7.385-6.5526z" fill="#36B021"/>
</g>
<path d="m278.59 24.54c-1.075-2.7074-0.058-6.4475 0.585-7.9791l2.106-0.6269c0.632-0.188 5.426 2.8786 6.364 5.9104 0.939 3.0317-0.326 9.5575-1.67 9.2482-1.345-0.3093-6.042-3.1684-7.385-6.5526z" fill="#36B021"/>
<g filter="url(#a)">
<path d="m279.59 21.573c-0.642-1.6191-0.026-3.8578 0.362-4.7748l1.266-0.3769c0.38-0.1131 3.256 1.7178 3.816 3.531 0.56 1.8133-0.209 5.7192-1.016 5.5352-0.807-0.1839-3.625-1.8907-4.428-3.9145z" fill="#45D42C"/>
</g>
<path d="m277.67 13.92 1.067 2.2816 3.155-0.9396-1.067-2.2816-3.155 0.9396z" fill="#141414" stroke="#000" stroke-linejoin="round" stroke-width="2"/>
<g filter="url(#aa)">
<path d="m209.5 29.765c0.676-2.7892 3.758-5.6917 5.215-6.7943l2.179 0.2488c0.654 0.0746 2.962 4.5928 1.979 7.6155-0.984 3.0226-5.925 8.2808-6.897 7.498-0.973-0.7828-3.32-5.0815-2.476-8.568z" fill="#36B021"/>
</g>
<path d="m209.21 30.181c0.675-2.7892 3.758-5.6917 5.215-6.7943l2.179 0.2488c0.654 0.0746 2.962 4.5928 1.978 7.6154-0.983 3.0227-5.924 8.2809-6.896 7.4981-0.973-0.7828-3.32-5.0815-2.476-8.568z" fill="#36B021"/>
<g filter="url(#z)">
<path d="m211.83 27.954c0.404-1.6677 2.255-3.4024 3.13-4.0612l1.311 0.1496c0.393 0.0448 1.783 2.7476 1.193 4.5549-0.589 1.8073-3.556 4.95-4.141 4.4815s-1.999-3.0401-1.493-5.1248z" fill="#45D42C"/>
</g>
<path d="m214.72 20.503-0.43 2.4127 3.266 0.373 0.43-2.4127-3.266-0.373z" fill="#141414" stroke="#000" stroke-linejoin="round" stroke-width="2"/>
<g filter="url(#y)">
<path d="m156.21 34.07c-0.669-2.7896 0.862-6.4031 1.711-7.8612l2.155-0.42c0.646-0.1259 4.913 3.377 5.402 6.4754 0.489 3.0983-1.681 9.4523-2.956 9.0164-1.275-0.436-5.475-3.7236-6.312-7.2106z" fill="#36B021"/>
</g>
<path d="m156.14 34.54c-0.669-2.7896 0.862-6.4031 1.711-7.8612l2.155-0.42c0.647-0.126 4.913 3.377 5.402 6.4753 0.489 3.0984-1.681 9.4524-2.956 9.0165-1.275-0.436-5.475-3.7236-6.312-7.2106z" fill="#36B021"/>
<g filter="url(#x)">
<path d="m157.54 31.693c-0.4-1.6681 0.524-3.8304 1.035-4.7031l1.296-0.2525c0.389-0.0757 2.95 2.017 3.241 3.8699 0.291 1.853-1.02 5.6549-1.785 5.3949-0.766-0.26-3.288-2.2239-3.787-4.3092z" fill="#45D42C"/>
</g>
<path d="m156.75 23.918 0.722 2.3666 3.23-0.6295-0.723-2.3666-3.229 0.6295z" fill="#141414" stroke="#000" stroke-linejoin="round" stroke-width="2"/>
<g filter="url(#w)">
<path d="m29.476 32.516c0.5772-2.8034 3.5529-5.7743 4.9686-6.9093l2.1839 0.1998c0.6552 0.0599 3.1153 4.5248 2.2384 7.5686s-5.6254 8.4113-6.623 7.6506c-0.9977-0.7607-3.4893-5.0053-2.7679-8.5097z" fill="#36B021"/>
</g>
<path d="m29.205 32.939c0.5771-2.8035 3.5528-5.7743 4.9685-6.9093l2.184 0.1997c0.6551 0.06 3.1153 4.5248 2.2384 7.5686-0.877 3.0439-5.6254 8.4113-6.6231 7.6506-0.9976-0.7607-3.4892-5.0052-2.7678-8.5096z" fill="#36B021"/>
<g filter="url(#v)">
<path d="m31.741 30.655c0.3456-1.6763 2.1331-3.452 2.9837-4.1303l1.313 0.1201c0.3939 0.036 1.8749 2.7067 1.3491 4.5267-0.5257 1.8199-3.3779 5.0283-3.978 4.5731s-2.0999-2.9942-1.6678-5.0896z" fill="#45D42C"/>
</g>
<path d="m34.362 23.141-0.3455 2.4219 3.2732 0.2995 0.3456-2.4218-3.2733-0.2996z" fill="#141414" stroke="#000" stroke-linejoin="round" stroke-width="2"/>
<g filter="url(#u)">
<path d="m192.35 20.083c0.175-2.8391 2.7-6.0626 3.94-7.3195h2.19c0.657 0 3.722 4.2142 3.284 7.3195-0.438 3.1052-4.379 8.8721-5.474 8.2067-1.094-0.6654-4.159-4.6579-3.94-8.2067z" fill="#9B1EFB"/>
</g>
<path d="m192.14 20.526c0.175-2.8391 2.7-6.0626 3.941-7.3195h2.189c0.657 0 3.722 4.2142 3.284 7.3195-0.438 3.1052-4.379 8.8721-5.473 8.2067-1.095-0.6654-4.16-4.6579-3.941-8.2067z" fill="#9B1EFB"/>
<g filter="url(#t)">
<path d="m194.33 18.027c0.105-1.6977 1.623-3.6252 2.369-4.3768h1.316c0.395 0 2.238 2.5199 1.975 4.3768-0.264 1.8568-2.633 5.3051-3.291 4.9072s-2.501-2.7852-2.369-4.9072z" fill="#AB58F9"/>
</g>
<path d="m195.85 10.323v2.4398h3.284v-2.4398h-3.284z" fill="#141414" stroke="#000" stroke-linejoin="round" stroke-width="2"/>
<g filter="url(#s)">
<path d="m95.719 17.32c0.1752-2.8391 2.7001-6.0626 3.9407-7.3195h2.1894c0.657 0 3.722 4.2142 3.284 7.3195-0.438 3.1052-4.379 8.8721-5.4734 8.2067-1.0946-0.6654-4.1596-4.6579-3.9407-8.2067z" fill="#9B1EFB"/>
</g>
<path d="m95.511 17.763c0.1752-2.8391 2.7002-6.0626 3.9407-7.3195h2.1892c0.657 0 3.722 4.2143 3.284 7.3195s-4.379 8.8721-5.4732 8.2067c-1.0946-0.6654-4.1596-4.6579-3.9407-8.2067z" fill="#9B1EFB"/>
<g filter="url(#r)">
<path d="m97.696 15.264c0.1053-1.6977 1.6233-3.6252 2.369-4.3768h1.316c0.395 0 2.238 2.52 1.975 4.3768s-2.633 5.3051-3.291 4.9072c-0.6579-0.3978-2.5006-2.7852-2.369-4.9072z" fill="#AB58F9"/>
</g>
<path d="M99.2218 7.56018V10H102.506V7.56018H99.2218Z" fill="#141414" stroke="#000" stroke-linejoin="round" stroke-width="2"/>
<g filter="url(#p)">
<path d="m57.509 34.04c-0.2272-2.8355 1.8352-6.2669 2.8948-7.6283l2.1839-0.1995c0.6552-0.0599 4.3094 3.846 4.3122 6.9697 0.0029 3.1238-3.1117 9.2101-4.2979 8.6491-1.1861-0.5611-4.8089-4.2466-5.093-7.791z" fill="#9B1EFB"/>
</g>
<path d="m57.365 34.499c-0.2272-2.8354 1.8351-6.2669 2.8948-7.6282l2.1839-0.1996c0.6552-0.0598 4.3094 3.846 4.3122 6.9697 0.0029 3.1238-3.1117 9.2101-4.2979 8.6491s-4.8089-4.2466-5.093-7.791z" fill="#9B1EFB"/>
<g filter="url(#o)">
<path d="m59.188 31.817c-0.1353-1.6956 1.1061-3.7482 1.7438-4.5626l1.313-0.1199c0.3939-0.036 2.5889 2.2986 2.5892 4.1666s-1.8749 5.5086-2.5878 5.1734c-0.7128-0.3352-2.889-2.5381-3.0582-4.6575z" fill="#AB58F9"/>
</g>
<path d="m59.613 24.025 0.3452 2.4219 3.2733-0.2992-0.3452-2.4219-3.2733 0.2992z" fill="#141414" stroke="#000" stroke-linejoin="round" stroke-width="2"/>
<g filter="url(#n)">
<path d="m259.48 31.9c-0.865-2.7548 0.42-6.4343 1.171-7.9297l2.135-0.5193c0.64-0.1557 5.166 3.1448 5.872 6.2163s-1.032 9.5174-2.342 9.1411-5.755-3.4649-6.836-6.9084z" fill="#D48A13"/>
</g>
<path d="m259.44 32.374c-0.866-2.7548 0.42-6.4344 1.171-7.9298l2.134-0.5192c0.641-0.1558 5.166 3.1448 5.872 6.2163 0.707 3.0714-1.031 9.5174-2.341 9.1411s-5.755-3.4649-6.836-6.9084z" fill="#D48A13"/>
<g filter="url(#m)">
<path d="m260.65 29.465c-0.517-1.6474 0.26-3.8495 0.713-4.7447l1.283-0.3121c0.385-0.0937 3.101 1.8775 3.522 3.7145 0.42 1.8369-0.631 5.6944-1.418 5.4702s-3.454-2.0686-4.1-4.1279z" fill="#F7A324"/>
</g>
<path d="m259.32 21.736 0.889 2.3297 3.198-0.7782-0.889-2.3297-3.198 0.7782z" fill="#141414" stroke="#000" stroke-linejoin="round" stroke-width="2"/>
<g filter="url(#l)">
<path d="m131.01 34.06c0.175-2.8391 2.7-6.0626 3.94-7.3195h2.19c0.656 0 3.721 4.2143 3.284 7.3195-0.438 3.1053-4.379 8.8721-5.474 8.2067-1.094-0.6654-4.159-4.6578-3.94-8.2067z" fill="#D48A13"/>
</g>
<path d="m130.8 34.503c0.175-2.8391 2.7-6.0626 3.941-7.3195h2.189c0.657 0 3.722 4.2143 3.284 7.3195-0.438 3.1053-4.379 8.8721-5.473 8.2067-1.095-0.6654-4.16-4.6578-3.941-8.2067z" fill="#D48A13"/>
<g filter="url(#k)">
<path d="m132.99 32.004c0.105-1.6977 1.623-3.6252 2.369-4.3768h1.316c0.395 0 2.238 2.52 1.975 4.3768-0.264 1.8568-2.633 5.3052-3.291 4.9073s-2.501-2.7852-2.369-4.9073z" fill="#F7A324"/>
</g>
<path d="m134.51 24.3v2.4398h3.283v-2.4398h-3.283z" fill="#141414" stroke="#000" stroke-linejoin="round" stroke-width="2"/>
<g filter="url(#j)">
<path d="m79.589 26.429c-0.8595-2.7559 0.433-6.4337 1.1867-7.9281l2.1351-0.5164c0.6405-0.1549 5.159 3.1516 5.8589 6.224 0.7 3.0724-1.0502 9.5159-2.3593 9.1379-1.309-0.3781-5.747-3.4725-6.8214-6.9174z" fill="#D48A13"/>
</g>
<path d="m79.549 26.903c-0.8596-2.7559 0.433-6.4337 1.1867-7.9281l2.135-0.5164c0.6406-0.1549 5.159 3.1517 5.859 6.224 0.6999 3.0724-1.0503 9.516-2.3593 9.1379-1.309-0.378-5.747-3.4725-6.8214-6.9174z" fill="#D48A13"/>
<g filter="url(#i)">
<path d="m80.767 23.996c-0.5135-1.648 0.2674-3.8491 0.7221-4.7437l1.2836-0.3104c0.3851-0.0932 3.0967 1.8817 3.5138 3.7191 0.4171 1.8375-0.6419 5.6935-1.4281 5.4683s-3.4497-2.0732-4.0914-4.1333z" fill="#F7A324"/>
</g>
<path d="m79.45 16.265 0.8845 2.3309 3.1988-0.7739-0.8844-2.3309-3.1989 0.7739z" fill="#141414" stroke="#000" stroke-linejoin="round" stroke-width="2"/>
<defs>
<filter id="ab" x="223.6" y="17.515" width="29.468" height="35.579" color-interpolation-filters="sRGB" filterUnits="userSpaceOnUse">
<feFlood flood-opacity="0" result="BackgroundImageFix"/>
<feBlend in="SourceGraphic" in2="BackgroundImageFix" result="shape"/>
<feGaussianBlur result="effect1_foregroundBlur_2316_1809" stdDeviation="5"/>
</filter>
<filter id="q" x="234.58" y="27.402" width="7.6921" height="11.316" color-interpolation-filters="sRGB" filterUnits="userSpaceOnUse">
<feFlood flood-opacity="0" result="BackgroundImageFix"/>
<feBlend in="SourceGraphic" in2="BackgroundImageFix" result="shape"/>
<feGaussianBlur result="effect1_foregroundBlur_2316_1809" stdDeviation="0.5"/>
</filter>
<filter id="h" x="165.51" y="8.2236" width="30.274" height="34.858" color-interpolation-filters="sRGB" filterUnits="userSpaceOnUse">
<feFlood flood-opacity="0" result="BackgroundImageFix"/>
<feBlend in="SourceGraphic" in2="BackgroundImageFix" result="shape"/>
<feGaussianBlur result="effect1_foregroundBlur_2316_1809" stdDeviation="5"/>
</filter>
<filter id="g" x="175.6" y="18.194" width="8.1637" height="10.887" color-interpolation-filters="sRGB" filterUnits="userSpaceOnUse">
<feFlood flood-opacity="0" result="BackgroundImageFix"/>
<feBlend in="SourceGraphic" in2="BackgroundImageFix" result="shape"/>
<feGaussianBlur result="effect1_foregroundBlur_2316_1809" stdDeviation="0.5"/>
</filter>
<filter id="f" x="101.15" y="11.132" width="30.024" height="35.289" color-interpolation-filters="sRGB" filterUnits="userSpaceOnUse">
<feFlood flood-opacity="0" result="BackgroundImageFix"/>
<feBlend in="SourceGraphic" in2="BackgroundImageFix" result="shape"/>
<feGaussianBlur result="effect1_foregroundBlur_2316_1809" stdDeviation="5"/>
</filter>
<filter id="e" x="112.75" y="21.065" width="8.0232" height="11.142" color-interpolation-filters="sRGB" filterUnits="userSpaceOnUse">
<feFlood flood-opacity="0" result="BackgroundImageFix"/>
<feBlend in="SourceGraphic" in2="BackgroundImageFix" result="shape"/>
<feGaussianBlur result="effect1_foregroundBlur_2316_1809" stdDeviation="0.5"/>
</filter>
<filter id="d" x=".47717" y="11.083" width="19.874" height="25.389" color-interpolation-filters="sRGB" filterUnits="userSpaceOnUse">
<feFlood flood-opacity="0" result="BackgroundImageFix"/>
<feBlend in="SourceGraphic" in2="BackgroundImageFix" result="shape"/>
<feGaussianBlur result="effect1_foregroundBlur_2316_1809" stdDeviation="2.5"/>
</filter>
<filter id="c" x="6.7563" y="14.415" width="7.934" height="11.202" color-interpolation-filters="sRGB" filterUnits="userSpaceOnUse">
<feFlood flood-opacity="0" result="BackgroundImageFix"/>
<feBlend in="SourceGraphic" in2="BackgroundImageFix" result="shape"/>
<feGaussianBlur result="effect1_foregroundBlur_2316_1809" stdDeviation="0.5"/>
</filter>
<filter id="b" x="270.12" y="9.4507" width="23.85" height="29.177" color-interpolation-filters="sRGB" filterUnits="userSpaceOnUse">
<feFlood flood-opacity="0" result="BackgroundImageFix"/>
<feBlend in="SourceGraphic" in2="BackgroundImageFix" result="shape"/>
<feGaussianBlur result="effect1_foregroundBlur_2316_1809" stdDeviation="3.5"/>
</filter>
<filter id="a" x="278.31" y="15.416" width="7.9144" height="11.078" color-interpolation-filters="sRGB" filterUnits="userSpaceOnUse">
<feFlood flood-opacity="0" result="BackgroundImageFix"/>
<feBlend in="SourceGraphic" in2="BackgroundImageFix" result="shape"/>
<feGaussianBlur result="effect1_foregroundBlur_2316_1809" stdDeviation="0.5"/>
</filter>
<filter id="aa" x="199.32" y="12.971" width="29.793" height="35.441" color-interpolation-filters="sRGB" filterUnits="userSpaceOnUse">
<feFlood flood-opacity="0" result="BackgroundImageFix"/>
<feBlend in="SourceGraphic" in2="BackgroundImageFix" result="shape"/>
<feGaussianBlur result="effect1_foregroundBlur_2316_1809" stdDeviation="5"/>
</filter>
<filter id="z" x="210.72" y="22.893" width="7.8857" height="11.233" color-interpolation-filters="sRGB" filterUnits="userSpaceOnUse">
<feFlood flood-opacity="0" result="BackgroundImageFix"/>
<feBlend in="SourceGraphic" in2="BackgroundImageFix" result="shape"/>
<feGaussianBlur result="effect1_foregroundBlur_2316_1809" stdDeviation="0.5"/>
</filter>
<filter id="y" x="146.04" y="15.785" width="29.503" height="35.516" color-interpolation-filters="sRGB" filterUnits="userSpaceOnUse">
<feFlood flood-opacity="0" result="BackgroundImageFix"/>
<feBlend in="SourceGraphic" in2="BackgroundImageFix" result="shape"/>
<feGaussianBlur result="effect1_foregroundBlur_2316_1809" stdDeviation="5"/>
</filter>
<filter id="x" x="156.44" y="25.736" width="7.7109" height="11.28" color-interpolation-filters="sRGB" filterUnits="userSpaceOnUse">
<feFlood flood-opacity="0" result="BackgroundImageFix"/>
<feBlend in="SourceGraphic" in2="BackgroundImageFix" result="shape"/>
<feGaussianBlur result="effect1_foregroundBlur_2316_1809" stdDeviation="0.5"/>
</filter>
<filter id="w" x="19.346" y="15.607" width="29.707" height="35.492" color-interpolation-filters="sRGB" filterUnits="userSpaceOnUse">
<feFlood flood-opacity="0" result="BackgroundImageFix"/>
<feBlend in="SourceGraphic" in2="BackgroundImageFix" result="shape"/>
<feGaussianBlur result="effect1_foregroundBlur_2316_1809" stdDeviation="5"/>
</filter>
<filter id="v" x="30.664" y="25.524" width="7.8345" height="11.264" color-interpolation-filters="sRGB" filterUnits="userSpaceOnUse">
<feFlood flood-opacity="0" result="BackgroundImageFix"/>
<feBlend in="SourceGraphic" in2="BackgroundImageFix" result="shape"/>
<feGaussianBlur result="effect1_foregroundBlur_2316_1809" stdDeviation="0.5"/>
</filter>
<filter id="u" x="182.34" y="2.7632" width="29.468" height="35.579" color-interpolation-filters="sRGB" filterUnits="userSpaceOnUse">
<feFlood flood-opacity="0" result="BackgroundImageFix"/>
<feBlend in="SourceGraphic" in2="BackgroundImageFix" result="shape"/>
<feGaussianBlur result="effect1_foregroundBlur_2316_1809" stdDeviation="5"/>
</filter>
<filter id="t" x="193.32" y="12.65" width="7.6921" height="11.316" color-interpolation-filters="sRGB" filterUnits="userSpaceOnUse">
<feFlood flood-opacity="0" result="BackgroundImageFix"/>
<feBlend in="SourceGraphic" in2="BackgroundImageFix" result="shape"/>
<feGaussianBlur result="effect1_foregroundBlur_2316_1809" stdDeviation="0.5"/>
</filter>
<filter id="s" x="85.708" y="0" width="29.468" height="35.579" color-interpolation-filters="sRGB" filterUnits="userSpaceOnUse">
<feFlood flood-opacity="0" result="BackgroundImageFix"/>
<feBlend in="SourceGraphic" in2="BackgroundImageFix" result="shape"/>
<feGaussianBlur result="effect1_foregroundBlur_2316_1809" stdDeviation="5"/>
</filter>
<filter id="r" x="96.689" y="9.8872" width="7.6921" height="11.316" color-interpolation-filters="sRGB" filterUnits="userSpaceOnUse">
<feFlood flood-opacity="0" result="BackgroundImageFix"/>
<feBlend in="SourceGraphic" in2="BackgroundImageFix" result="shape"/>
<feGaussianBlur result="effect1_foregroundBlur_2316_1809" stdDeviation="0.5"/>
</filter>
<filter id="p" x="47.492" y="16.211" width="29.408" height="35.656" color-interpolation-filters="sRGB" filterUnits="userSpaceOnUse">
<feFlood flood-opacity="0" result="BackgroundImageFix"/>
<feBlend in="SourceGraphic" in2="BackgroundImageFix" result="shape"/>
<feGaussianBlur result="effect1_foregroundBlur_2316_1809" stdDeviation="5"/>
</filter>
<filter id="o" x="58.178" y="26.134" width="7.6562" height="11.362" color-interpolation-filters="sRGB" filterUnits="userSpaceOnUse">
<feFlood flood-opacity="0" result="BackgroundImageFix"/>
<feBlend in="SourceGraphic" in2="BackgroundImageFix" result="shape"/>
<feGaussianBlur result="effect1_foregroundBlur_2316_1809" stdDeviation="0.5"/>
</filter>
<filter id="n" x="249.19" y="13.446" width="29.629" height="35.378" color-interpolation-filters="sRGB" filterUnits="userSpaceOnUse">
<feFlood flood-opacity="0" result="BackgroundImageFix"/>
<feBlend in="SourceGraphic" in2="BackgroundImageFix" result="shape"/>
<feGaussianBlur result="effect1_foregroundBlur_2316_1809" stdDeviation="5"/>
</filter>
<filter id="m" x="259.48" y="23.405" width="7.7849" height="11.197" color-interpolation-filters="sRGB" filterUnits="userSpaceOnUse">
<feFlood flood-opacity="0" result="BackgroundImageFix"/>
<feBlend in="SourceGraphic" in2="BackgroundImageFix" result="shape"/>
<feGaussianBlur result="effect1_foregroundBlur_2316_1809" stdDeviation="0.5"/>
</filter>
<filter id="l" x="121" y="16.74" width="29.468" height="35.579" color-interpolation-filters="sRGB" filterUnits="userSpaceOnUse">
<feFlood flood-opacity="0" result="BackgroundImageFix"/>
<feBlend in="SourceGraphic" in2="BackgroundImageFix" result="shape"/>
<feGaussianBlur result="effect1_foregroundBlur_2316_1809" stdDeviation="5"/>
</filter>
<filter id="k" x="131.98" y="26.627" width="7.6921" height="11.316" color-interpolation-filters="sRGB" filterUnits="userSpaceOnUse">
<feFlood flood-opacity="0" result="BackgroundImageFix"/>
<feBlend in="SourceGraphic" in2="BackgroundImageFix" result="shape"/>
<feGaussianBlur result="effect1_foregroundBlur_2316_1809" stdDeviation="0.5"/>
</filter>
<filter id="j" x="69.305" y="7.9796" width="29.625" height="35.383" color-interpolation-filters="sRGB" filterUnits="userSpaceOnUse">
<feFlood flood-opacity="0" result="BackgroundImageFix"/>
<feBlend in="SourceGraphic" in2="BackgroundImageFix" result="shape"/>
<feGaussianBlur result="effect1_foregroundBlur_2316_1809" stdDeviation="5"/>
</filter>
<filter id="i" x="79.599" y="17.938" width="7.7822" height="11.2" color-interpolation-filters="sRGB" filterUnits="userSpaceOnUse">
<feFlood flood-opacity="0" result="BackgroundImageFix"/>
<feBlend in="SourceGraphic" in2="BackgroundImageFix" result="shape"/>
<feGaussianBlur result="effect1_foregroundBlur_2316_1809" stdDeviation="0.5"/>
</filter>
</defs>
</svg>
