<svg width="130" height="131" viewBox="0 0 130 131" fill="none" xmlns="http://www.w3.org/2000/svg">
<path d="M129 1H64.107L1 130H129V1Z" fill="#E6F1F8" stroke="#E6F1F8"/>
<circle cx="83.5" cy="68.5" r="36.5" fill="white"/>
<path fill-rule="evenodd" clip-rule="evenodd" d="M83.5015 58.2917C85.511 58.2917 87.1458 56.6554 87.1458 54.6458C87.1458 52.6362 85.511 51 83.5015 51C81.4919 51 79.8542 52.6362 79.8542 54.6458C79.8542 56.6554 81.4919 58.2917 83.5015 58.2917ZM75.4792 66.3125C75.4792 68.3221 73.8444 69.9583 71.8348 69.9583C69.8252 69.9583 68.1875 68.3221 68.1875 66.3125C68.1875 64.3029 69.8252 62.6667 71.8348 62.6667C73.8444 62.6667 75.4792 64.3029 75.4792 66.3125ZM68.9167 79.894C66.2333 78.8381 66 75.6298 66 72.1458V71.4167H77.6667V72.1458C77.6667 75.6283 77.4333 78.8367 74.75 79.894V86H68.9167V79.894ZM95.1681 69.9583C97.1777 69.9583 98.8125 68.3221 98.8125 66.3125C98.8125 64.3029 97.1777 62.6667 95.1681 62.6667C93.1585 62.6667 91.5208 64.3029 91.5208 66.3125C91.5208 68.3221 93.1585 69.9583 95.1681 69.9583ZM89.3333 72.1458V71.4167H101V72.1458C101 75.6283 100.767 78.8367 98.0833 79.894V86H92.25V79.894C89.5667 78.8381 89.3333 75.6298 89.3333 72.1458ZM77.6667 59.75H89.3333V60.4792C89.3333 63.9617 89.1 67.17 86.4167 68.2273V74.3333H80.5833V68.2273C77.9 67.1715 77.6667 63.9631 77.6667 60.4792V59.75Z" fill="#005077"/>
</svg>
