<svg width="65" height="65" viewBox="0 0 65 65" fill="none" xmlns="http://www.w3.org/2000/svg">
<circle cx="32.5" cy="32.5" r="32" fill="white" stroke="#005077"/>
<path fill-rule="evenodd" clip-rule="evenodd" d="M45 25.5V29H21V25.5C21 25.225 21.225 25 21.5 25H30V23.5C30 21.846 31.346 20.5 33 20.5C34.654 20.5 36 21.846 36 23.5V25H44.5C44.776 25 45 25.225 45 25.5ZM34 23.5C34 22.948 33.553 22.5 33 22.5C32.447 22.5 32 22.948 32 23.5C32 24.052 32.447 24.5 33 24.5C33.553 24.5 34 24.052 34 23.5ZM21 42.5V30H45V42.5C45 42.776 44.776 43 44.5 43H21.5C21.225 43 21 42.776 21 42.5ZM34 32V33H38V32H34ZM42 37V36H34V37H42ZM42 38V39H34V38H42ZM24 40H32V39.5C32 38.26 31.378 36.862 29.752 36.28C30.213 35.826 30.5 35.197 30.5 34.5C30.5 33.122 29.379 32 28 32C26.622 32 25.5 33.122 25.5 34.5C25.5 35.197 25.788 35.826 26.25 36.28C24.623 36.862 24 38.26 24 39.5V40ZM42 34V35H34V34H42Z" fill="#005077"/>
</svg>
