<svg width="65" height="65" viewBox="0 0 65 65" fill="none" xmlns="http://www.w3.org/2000/svg">
<circle cx="32.5" cy="32.5" r="32" fill="#E6F1F8" stroke="#005077"/>
<path fill-rule="evenodd" clip-rule="evenodd" d="M25.146 43.447C28.455 43.447 31.146 40.756 31.146 37.447C31.146 36.525 30.929 35.611 30.517 34.783L35.146 30.154L37.146 32.154L38.853 30.447L36.853 28.447L38.146 27.154L40.646 29.654L42.853 27.447L40.353 24.947L41.5 23.801C42.246 23.055 42.246 21.842 41.5 21.094C40.777 20.371 39.516 20.371 38.793 21.094L27.811 32.076C26.983 31.664 26.069 31.447 25.147 31.447C21.838 31.447 19.147 34.138 19.147 37.447C19.147 40.756 21.838 43.447 25.146 43.447ZM25.146 34.447C26.8 34.447 28.146 35.793 28.146 37.447C28.146 39.101 26.8 40.447 25.146 40.447C23.492 40.447 22.146 39.101 22.146 37.447C22.146 35.793 23.492 34.447 25.146 34.447Z" fill="#005077"/>
</svg>
