<svg width="65" height="65" viewBox="0 0 65 65" fill="none" xmlns="http://www.w3.org/2000/svg">
<circle cx="32.5" cy="32.5" r="32" fill="white" stroke="#005077"/>
<path d="M25.2703 35.733C25.2703 37.1795 24.0969 38.3485 22.6451 38.3485C21.1932 38.3485 20.0198 37.1795 20.0198 35.733C20.0198 34.2865 21.1932 33.1174 22.6451 33.1174H25.2703V35.733Z" fill="#005077"/>
<path d="M26.5836 35.733C26.5836 34.2865 27.757 33.1174 29.2089 33.1174C30.6608 33.1174 31.8342 34.2865 31.8342 35.733V42.2719C31.8342 43.7184 30.6608 44.8874 29.2089 44.8874C27.757 44.8874 26.5836 43.7184 26.5836 42.2719V35.733Z" fill="#005077"/>
<path d="M29.2087 25.2311C27.7568 25.2311 26.5834 24.062 26.5834 22.6156C26.5834 21.1691 27.7568 20 29.2087 20C30.6605 20 31.8339 21.1691 31.8339 22.6156V25.2311H29.2087Z" fill="#005077"/>
<path d="M29.2084 26.5588C30.6602 26.5588 31.8336 27.7279 31.8336 29.1744C31.8336 30.6209 30.6602 31.7899 29.2084 31.7899H22.6253C21.1734 31.7899 20 30.6209 20 29.1744C20 27.7279 21.1734 26.5588 22.6253 26.5588H29.2084Z" fill="#005077"/>
<path d="M39.7291 29.1746C39.7291 27.7282 40.9025 26.5591 42.3544 26.5591C43.8063 26.5591 44.9797 27.7282 44.9797 29.1746C44.9797 30.6211 43.8063 31.7902 42.3544 31.7902H39.7291V29.1746Z" fill="#005077"/>
<path d="M38.4173 29.1743C38.4173 30.6207 37.2439 31.7898 35.792 31.7898C34.3402 31.7898 33.1667 30.6207 33.1667 29.1743V22.6156C33.1667 21.1691 34.3402 20 35.792 20C37.2439 20 38.4173 21.1691 38.4173 22.6156V29.1743Z" fill="#005077"/>
<path d="M35.7915 39.6562C37.2434 39.6562 38.4168 40.8253 38.4168 42.2718C38.4168 43.7183 37.2434 44.8874 35.7915 44.8874C34.3397 44.8874 33.1663 43.7183 33.1663 42.2718V39.6562H35.7915Z" fill="#005077"/>
<path d="M35.7915 38.3485C34.3397 38.3485 33.1663 37.1795 33.1663 35.733C33.1663 34.2865 34.3397 33.1174 35.7915 33.1174H42.3746C43.8265 33.1174 44.9999 34.2865 44.9999 35.733C44.9999 37.1795 43.8265 38.3485 42.3746 38.3485H35.7915Z" fill="#005077"/>
</svg>
