<svg width="91" height="91" viewBox="0 0 91 91" fill="none" xmlns="http://www.w3.org/2000/svg">
    <circle cx="45.5" cy="45.5" r="45" fill="#005077" stroke="#005077"/>
    <path fill-rule="evenodd" clip-rule="evenodd" d="M47.0019 31.5833C49.6431 31.5833 51.7917 29.4328 51.7917 26.7917C51.7917 24.1505 49.6431 22 47.0019 22C44.3608 22 42.2083 24.1505 42.2083 26.7917C42.2083 29.4328 44.3608 31.5833 47.0019 31.5833ZM36.4583 42.125C36.4583 44.7662 34.3097 46.9167 31.6686 46.9167C29.0274 46.9167 26.875 44.7662 26.875 42.125C26.875 39.4838 29.0274 37.3333 31.6686 37.3333C34.3097 37.3333 36.4583 39.4838 36.4583 42.125ZM27.8333 59.9749C24.3067 58.5872 24 54.3706 24 49.7917V48.8333H39.3333V49.7917C39.3333 54.3687 39.0267 58.5853 35.5 59.9749V68H27.8333V59.9749ZM62.3353 46.9167C64.9764 46.9167 67.125 44.7662 67.125 42.125C67.125 39.4838 64.9764 37.3333 62.3353 37.3333C59.6941 37.3333 57.5417 39.4838 57.5417 42.125C57.5417 44.7662 59.6941 46.9167 62.3353 46.9167ZM54.6667 49.7917V48.8333H70V49.7917C70 54.3687 69.6933 58.5853 66.1667 59.9749V68H58.5V59.9749C54.9733 58.5872 54.6667 54.3706 54.6667 49.7917ZM39.3333 33.5H54.6667V34.4583C54.6667 39.0353 54.36 43.252 50.8333 44.6416V52.6667H43.1667V44.6416C39.64 43.2539 39.3333 39.0373 39.3333 34.4583V33.5Z" fill="white"/>
</svg>
