<svg width="38" height="37" viewBox="0 0 38 37" fill="none" xmlns="http://www.w3.org/2000/svg">
<ellipse cx="19" cy="18.5" rx="19" ry="18.5" fill="white"/>
<path fill-rule="evenodd" clip-rule="evenodd" d="M19.501 11C20.9365 11 22.1042 9.878 22.1042 8.5C22.1042 7.122 20.9365 6 19.501 6C18.0656 6 16.8958 7.122 16.8958 8.5C16.8958 9.878 18.0656 11 19.501 11ZM13.7708 16.5C13.7708 17.878 12.6031 19 11.1677 19C9.73229 19 8.5625 17.878 8.5625 16.5C8.5625 15.122 9.73229 14 11.1677 14C12.6031 14 13.7708 15.122 13.7708 16.5ZM9.08333 25.813C7.16667 25.089 7 22.889 7 20.5V20H15.3333V20.5C15.3333 22.888 15.1667 25.088 13.25 25.813V30H9.08333V25.813ZM27.8344 19C29.2698 19 30.4375 17.878 30.4375 16.5C30.4375 15.122 29.2698 14 27.8344 14C26.399 14 25.2292 15.122 25.2292 16.5C25.2292 17.878 26.399 19 27.8344 19ZM23.6667 20.5V20H32V20.5C32 22.888 31.8333 25.088 29.9167 25.813V30H25.75V25.813C23.8333 25.089 23.6667 22.889 23.6667 20.5ZM15.3333 12H23.6667V12.5C23.6667 14.888 23.5 17.088 21.5833 17.813V22H17.4167V17.813C15.5 17.089 15.3333 14.889 15.3333 12.5V12Z" fill="#262626"/>
</svg>
