<svg width="75" height="75" viewBox="0 0 75 75" fill="none" xmlns="http://www.w3.org/2000/svg">
    <circle cx="37.5" cy="37.5" r="37.5" fill="#"/>
    <path fill-rule="evenodd" clip-rule="evenodd" d="M43.8014 20.2698C44.5485 19.4192 45 18.3184 45 17.1151C45 14.4217 42.7427 12.2386 39.958 12.2386C39.5915 12.2386 39.2344 12.2773 38.8901 12.3492C38.6617 11.4733 37.8421 10.8252 36.8657 10.8252C36.7162 10.8252 36.5709 10.8406 36.4301 10.8695C35.6483 9.17868 33.8955 8 31.8566 8C30.0251 8 28.4237 8.95139 27.5506 10.3704C27.2465 10.2033 26.8953 10.1073 26.5205 10.1073C25.7202 10.1073 25.0252 10.5434 24.6748 11.1831C24.4784 11.1506 24.2773 11.1329 24.0711 11.1329C22.097 11.1329 20.4967 12.6807 20.4967 14.5898C20.4967 14.9699 20.561 15.3352 20.6782 15.6774C20.4199 15.9234 20.2283 16.2341 20.1298 16.5825C20.0954 16.5812 20.061 16.5799 20.0264 16.5799C18.355 16.5799 17 17.8904 17 19.5068C17 20.6906 17.727 21.7095 18.7729 22.1705C18.7639 22.2452 18.7592 22.321 18.7592 22.398C18.7592 22.7113 18.833 23.0077 18.9646 23.2721C18.5829 23.9589 18.3662 24.7436 18.3662 25.5775C18.3662 28.1547 20.4337 30.2633 23.0517 30.4404C23.1266 31.8118 24.2995 32.9014 25.7361 32.9014C26.1233 32.9014 26.4906 32.8218 26.8233 32.6795C27.1359 33.4128 27.8825 33.9294 28.7537 33.9294C29.3606 33.9294 29.9066 33.6788 30.2879 33.279C30.7617 33.7248 31.4085 34 32.1218 34C33.0602 34 33.8836 33.5242 34.3488 32.8085C34.7435 33.0128 35.1942 33.129 35.6727 33.129C37.2238 33.129 38.4815 31.9127 38.4815 30.4123V30.4115C38.6966 30.4386 38.9153 30.454 39.1381 30.454C41.9226 30.454 44.1804 28.2707 44.1804 25.5775C44.1804 24.9607 44.0605 24.3709 43.8442 23.8275C44.4874 23.4833 44.923 22.8209 44.923 22.0597C44.923 21.2818 44.468 20.6071 43.8014 20.2698" fill="white"/>
    <path fill-rule="evenodd" clip-rule="evenodd" d="M67.8014 40.2698C68.5485 39.4192 69 38.3184 69 37.1151C69 34.4217 66.7427 32.2386 63.958 32.2386C63.5915 32.2386 63.2344 32.2773 62.8901 32.3492C62.6617 31.4733 61.8421 30.8252 60.8657 30.8252C60.7162 30.8252 60.5709 30.8406 60.4301 30.8695C59.6483 29.1787 57.8955 28 55.8566 28C54.0251 28 52.4237 28.9514 51.5506 30.3704C51.2465 30.2033 50.8953 30.1073 50.5205 30.1073C49.7202 30.1073 49.0252 30.5434 48.6748 31.1831C48.4784 31.1506 48.2773 31.1329 48.0711 31.1329C46.097 31.1329 44.4967 32.6807 44.4967 34.5898C44.4967 34.9699 44.561 35.3352 44.6782 35.6774C44.4199 35.9234 44.2283 36.2341 44.1298 36.5825C44.0954 36.5812 44.061 36.5799 44.0264 36.5799C42.355 36.5799 41 37.8904 41 39.5068C41 40.6906 41.727 41.7095 42.7729 42.1705C42.7639 42.2452 42.7592 42.321 42.7592 42.398C42.7592 42.7113 42.833 43.0077 42.9646 43.2721C42.5829 43.9589 42.3662 44.7436 42.3662 45.5775C42.3662 48.1547 44.4337 50.2633 47.0517 50.4404C47.1266 51.8118 48.2995 52.9014 49.7361 52.9014C50.1233 52.9014 50.4906 52.8218 50.8233 52.6795C51.1359 53.4128 51.8825 53.9294 52.7537 53.9294C53.3606 53.9294 53.9066 53.6788 54.2879 53.279C54.7617 53.7248 55.4085 54 56.1218 54C57.0602 54 57.8836 53.5242 58.3488 52.8085C58.7435 53.0128 59.1942 53.129 59.6727 53.129C61.2238 53.129 62.4815 51.9127 62.4815 50.4123V50.4115C62.6966 50.4386 62.9153 50.454 63.1381 50.454C65.9226 50.454 68.1804 48.2707 68.1804 45.5775C68.1804 44.9607 68.0605 44.3709 67.8442 43.8275C68.4874 43.4833 68.923 42.8209 68.923 42.0597C68.923 41.2818 68.468 40.6071 67.8014 40.2698" fill="white"/>
    <path fill-rule="evenodd" clip-rule="evenodd" d="M37.8014 50.2698C38.5485 49.4192 39 48.3184 39 47.1151C39 44.4217 36.7427 42.2386 33.958 42.2386C33.5915 42.2386 33.2344 42.2773 32.8901 42.3492C32.6617 41.4733 31.8421 40.8252 30.8657 40.8252C30.7162 40.8252 30.5709 40.8406 30.4301 40.8695C29.6483 39.1787 27.8955 38 25.8566 38C24.0251 38 22.4237 38.9514 21.5506 40.3704C21.2465 40.2033 20.8953 40.1073 20.5205 40.1073C19.7202 40.1073 19.0252 40.5434 18.6748 41.1831C18.4784 41.1506 18.2773 41.1329 18.0711 41.1329C16.097 41.1329 14.4967 42.6807 14.4967 44.5898C14.4967 44.9699 14.561 45.3352 14.6782 45.6774C14.4199 45.9234 14.2283 46.2341 14.1298 46.5825C14.0954 46.5812 14.061 46.5799 14.0264 46.5799C12.355 46.5799 11 47.8904 11 49.5068C11 50.6906 11.727 51.7095 12.7729 52.1705C12.7639 52.2452 12.7592 52.321 12.7592 52.398C12.7592 52.7113 12.833 53.0077 12.9646 53.2721C12.5829 53.9589 12.3662 54.7436 12.3662 55.5775C12.3662 58.1547 14.4337 60.2633 17.0517 60.4404C17.1266 61.8118 18.2995 62.9014 19.7361 62.9014C20.1233 62.9014 20.4906 62.8218 20.8233 62.6795C21.1359 63.4128 21.8825 63.9294 22.7537 63.9294C23.3606 63.9294 23.9066 63.6788 24.2879 63.279C24.7617 63.7248 25.4085 64 26.1218 64C27.0602 64 27.8836 63.5242 28.3488 62.8085C28.7435 63.0128 29.1942 63.129 29.6727 63.129C31.2238 63.129 32.4815 61.9127 32.4815 60.4123V60.4115C32.6966 60.4386 32.9153 60.454 33.1381 60.454C35.9226 60.454 38.1804 58.2707 38.1804 55.5775C38.1804 54.9607 38.0605 54.3709 37.8442 53.8275C38.4874 53.4833 38.923 52.8209 38.923 52.0597C38.923 51.2818 38.468 50.6071 37.8014 50.2698" fill="white"/>
    <path fill-rule="evenodd" clip-rule="evenodd" d="M31.0006 16.9167C31.8044 16.9167 32.4583 16.2622 32.4583 15.4583C32.4583 14.6545 31.8044 14 31.0006 14C30.1967 14 29.5417 14.6545 29.5417 15.4583C29.5417 16.2622 30.1967 16.9167 31.0006 16.9167ZM27.7917 20.125C27.7917 20.9288 27.1378 21.5833 26.3339 21.5833C25.5301 21.5833 24.875 20.9288 24.875 20.125C24.875 19.3212 25.5301 18.6667 26.3339 18.6667C27.1378 18.6667 27.7917 19.3212 27.7917 20.125ZM25.1667 25.5576C24.0933 25.1353 24 23.8519 24 22.4583V22.1667H28.6667V22.4583C28.6667 23.8513 28.5733 25.1347 27.5 25.5576V28H25.1667V25.5576ZM35.6672 21.5833C36.4711 21.5833 37.125 20.9288 37.125 20.125C37.125 19.3212 36.4711 18.6667 35.6672 18.6667C34.8634 18.6667 34.2083 19.3212 34.2083 20.125C34.2083 20.9288 34.8634 21.5833 35.6672 21.5833ZM33.3333 22.4583V22.1667H38V22.4583C38 23.8513 37.9067 25.1347 36.8333 25.5576V28H34.5V25.5576C33.4267 25.1353 33.3333 23.8519 33.3333 22.4583ZM28.6667 17.5H33.3333V17.7917C33.3333 19.1847 33.24 20.468 32.1667 20.8909V23.3333H29.8333V20.8909C28.76 20.4686 28.6667 19.1852 28.6667 17.7917V17.5Z" fill="#005077"/>
    <path fill-rule="evenodd" clip-rule="evenodd" d="M55.0006 36.9167C55.8044 36.9167 56.4583 36.2622 56.4583 35.4583C56.4583 34.6545 55.8044 34 55.0006 34C54.1967 34 53.5417 34.6545 53.5417 35.4583C53.5417 36.2622 54.1967 36.9167 55.0006 36.9167ZM51.7917 40.125C51.7917 40.9288 51.1378 41.5833 50.3339 41.5833C49.5301 41.5833 48.875 40.9288 48.875 40.125C48.875 39.3212 49.5301 38.6667 50.3339 38.6667C51.1378 38.6667 51.7917 39.3212 51.7917 40.125ZM49.1667 45.5576C48.0933 45.1353 48 43.8519 48 42.4583V42.1667H52.6667V42.4583C52.6667 43.8513 52.5733 45.1347 51.5 45.5576V48H49.1667V45.5576ZM59.6672 41.5833C60.4711 41.5833 61.125 40.9288 61.125 40.125C61.125 39.3212 60.4711 38.6667 59.6672 38.6667C58.8634 38.6667 58.2083 39.3212 58.2083 40.125C58.2083 40.9288 58.8634 41.5833 59.6672 41.5833ZM57.3333 42.4583V42.1667H62V42.4583C62 43.8513 61.9067 45.1347 60.8333 45.5576V48H58.5V45.5576C57.4267 45.1353 57.3333 43.8519 57.3333 42.4583ZM52.6667 37.5H57.3333V37.7917C57.3333 39.1847 57.24 40.468 56.1667 40.8909V43.3333H53.8333V40.8909C52.76 40.4686 52.6667 39.1852 52.6667 37.7917V37.5Z" fill="#005077"/>
    <path fill-rule="evenodd" clip-rule="evenodd" d="M25.0006 46.9167C25.8044 46.9167 26.4583 46.2622 26.4583 45.4583C26.4583 44.6545 25.8044 44 25.0006 44C24.1967 44 23.5417 44.6545 23.5417 45.4583C23.5417 46.2622 24.1967 46.9167 25.0006 46.9167ZM21.7917 50.125C21.7917 50.9288 21.1378 51.5833 20.3339 51.5833C19.5301 51.5833 18.875 50.9288 18.875 50.125C18.875 49.3212 19.5301 48.6667 20.3339 48.6667C21.1378 48.6667 21.7917 49.3212 21.7917 50.125ZM19.1667 55.5576C18.0933 55.1353 18 53.8519 18 52.4583V52.1667H22.6667V52.4583C22.6667 53.8513 22.5733 55.1347 21.5 55.5576V58H19.1667V55.5576ZM29.6672 51.5833C30.4711 51.5833 31.125 50.9288 31.125 50.125C31.125 49.3212 30.4711 48.6667 29.6672 48.6667C28.8634 48.6667 28.2083 49.3212 28.2083 50.125C28.2083 50.9288 28.8634 51.5833 29.6672 51.5833ZM27.3333 52.4583V52.1667H32V52.4583C32 53.8513 31.9067 55.1347 30.8333 55.5576V58H28.5V55.5576C27.4267 55.1353 27.3333 53.8519 27.3333 52.4583ZM22.6667 47.5H27.3333V47.7917C27.3333 49.1847 27.24 50.468 26.1667 50.8909V53.3333H23.8333V50.8909C22.76 50.4686 22.6667 49.1852 22.6667 47.7917V47.5Z" fill="#005077"/>
</svg>
