<svg width="73" height="73" viewBox="0 0 73 73" fill="none" xmlns="http://www.w3.org/2000/svg">
<circle cx="36.5" cy="36.5" r="36.5" fill="#E6F1F8"/>
<path fill-rule="evenodd" clip-rule="evenodd" d="M36.5015 26.2917C38.511 26.2917 40.1458 24.6554 40.1458 22.6458C40.1458 20.6362 38.511 19 36.5015 19C34.4919 19 32.8542 20.6362 32.8542 22.6458C32.8542 24.6554 34.4919 26.2917 36.5015 26.2917ZM28.4792 34.3125C28.4792 36.3221 26.8444 37.9583 24.8348 37.9583C22.8252 37.9583 21.1875 36.3221 21.1875 34.3125C21.1875 32.3029 22.8252 30.6667 24.8348 30.6667C26.8444 30.6667 28.4792 32.3029 28.4792 34.3125ZM21.9167 47.894C19.2333 46.8381 19 43.6298 19 40.1458V39.4167H30.6667V40.1458C30.6667 43.6283 30.4333 46.8367 27.75 47.894V54H21.9167V47.894ZM48.1681 37.9583C50.1777 37.9583 51.8125 36.3221 51.8125 34.3125C51.8125 32.3029 50.1777 30.6667 48.1681 30.6667C46.1585 30.6667 44.5208 32.3029 44.5208 34.3125C44.5208 36.3221 46.1585 37.9583 48.1681 37.9583ZM42.3333 40.1458V39.4167H54V40.1458C54 43.6283 53.7667 46.8367 51.0833 47.894V54H45.25V47.894C42.5667 46.8381 42.3333 43.6298 42.3333 40.1458ZM30.6667 27.75H42.3333V28.4792C42.3333 31.9617 42.1 35.17 39.4167 36.2273V42.3333H33.5833V36.2273C30.9 35.1715 30.6667 31.9631 30.6667 28.4792V27.75Z" fill="#005077"/>
</svg>
