<svg width="35" height="35" viewBox="0 0 35 35" fill="none" xmlns="http://www.w3.org/2000/svg">
<path fill-rule="evenodd" clip-rule="evenodd" d="M17.5015 7.29167C19.511 7.29167 21.1458 5.65542 21.1458 3.64583C21.1458 1.63625 19.511 0 17.5015 0C15.4919 0 13.8542 1.63625 13.8542 3.64583C13.8542 5.65542 15.4919 7.29167 17.5015 7.29167ZM9.47917 15.3125C9.47917 17.3221 7.84438 18.9583 5.83479 18.9583C3.82521 18.9583 2.1875 17.3221 2.1875 15.3125C2.1875 13.3029 3.82521 11.6667 5.83479 11.6667C7.84438 11.6667 9.47917 13.3029 9.47917 15.3125ZM2.91667 28.894C0.233333 27.8381 0 24.6298 0 21.1458V20.4167H11.6667V21.1458C11.6667 24.6283 11.4333 27.8367 8.75 28.894V35H2.91667V28.894ZM29.1681 18.9583C31.1777 18.9583 32.8125 17.3221 32.8125 15.3125C32.8125 13.3029 31.1777 11.6667 29.1681 11.6667C27.1585 11.6667 25.5208 13.3029 25.5208 15.3125C25.5208 17.3221 27.1585 18.9583 29.1681 18.9583ZM23.3333 21.1458V20.4167H35V21.1458C35 24.6283 34.7667 27.8367 32.0833 28.894V35H26.25V28.894C23.5667 27.8381 23.3333 24.6298 23.3333 21.1458ZM11.6667 8.75H23.3333V9.47917C23.3333 12.9617 23.1 16.17 20.4167 17.2273V23.3333H14.5833V17.2273C11.9 16.1715 11.6667 12.9631 11.6667 9.47917V8.75Z" fill="#005077"/>
</svg>
