<svg width="264" height="56" viewBox="0 0 264 56" fill="none" xmlns="http://www.w3.org/2000/svg">
<path d="M56 28C56 43.464 43.464 56 28 56C12.536 56 0 43.464 0 28C0 12.536 12.536 0 28 0C43.464 0 56 12.536 56 28Z" fill="white"/>
<path fill-rule="evenodd" clip-rule="evenodd" d="M14.755 21.71C16.387 21.71 17.71 20.387 17.71 18.755C17.71 17.123 16.387 15.8 14.755 15.8C13.123 15.8 11.8 17.123 11.8 18.755C11.8 20.387 13.123 21.71 14.755 21.71ZM14.755 23.51C17.3811 23.51 19.51 21.3811 19.51 18.755C19.51 16.1289 17.3811 14 14.755 14C12.1289 14 10 16.1289 10 18.755C10 21.3811 12.1289 23.51 14.755 23.51Z" fill="#005B82"/>
<path fill-rule="evenodd" clip-rule="evenodd" d="M27.755 21.71C29.387 21.71 30.71 20.387 30.71 18.755C30.71 17.123 29.387 15.8 27.755 15.8C26.123 15.8 24.8 17.123 24.8 18.755C24.8 20.387 26.123 21.71 27.755 21.71ZM27.755 23.51C30.3811 23.51 32.51 21.3811 32.51 18.755C32.51 16.1289 30.3811 14 27.755 14C25.1289 14 23 16.1289 23 18.755C23 21.3811 25.1289 23.51 27.755 23.51Z" fill="#005B82"/>
<path fill-rule="evenodd" clip-rule="evenodd" d="M40.755 21.71C42.387 21.71 43.71 20.387 43.71 18.755C43.71 17.123 42.387 15.8 40.755 15.8C39.123 15.8 37.8 17.123 37.8 18.755C37.8 20.387 39.123 21.71 40.755 21.71ZM40.755 23.51C43.3811 23.51 45.51 21.3811 45.51 18.755C45.51 16.1289 43.3811 14 40.755 14C38.1289 14 36 16.1289 36 18.755C36 21.3811 38.1289 23.51 40.755 23.51Z" fill="#005B82"/>
<path fill-rule="evenodd" clip-rule="evenodd" d="M28.0123 27.3891C26.8765 27.8426 25.7773 28.5383 24.8234 29.1965C23.9721 29.7839 23.173 30.434 22.4249 31.144C23.2645 32.7721 23.6928 34.6243 23.5154 36.3545C23.4178 37.3058 23.0412 38.1834 22.4949 38.9144C21.846 39.7825 21.0151 40.0086 20.1861 40.069C19.5139 40.118 18.906 39.9845 18.3984 39.6652C17.8946 39.3483 17.5557 38.89 17.3454 38.3984C16.9364 37.4423 16.973 36.2812 17.2471 35.3196C17.6726 33.8272 18.6763 32.5948 19.5085 31.6139C19.7207 31.3637 19.9377 31.1185 20.1595 30.8786C20.0333 30.7025 19.9005 30.5313 19.7616 30.3663C18.3809 28.7254 16.5382 27.8331 14.6323 28.2597C12.2523 28.7923 10.0085 30.8736 8.79201 33.1495C8.16708 34.3187 7.9001 35.4515 7.9001 36.78H6.1001C6.1001 35.1725 6.43227 33.7459 7.20454 32.301C8.5858 29.7168 11.1992 27.1835 14.2392 26.5031C17.0103 25.883 19.4843 27.241 21.1389 29.2073C21.2447 29.3331 21.3478 29.462 21.4479 29.5937C22.1862 28.9154 22.9704 28.2882 23.8011 27.715C24.7819 27.0382 26.0157 26.2481 27.3448 25.7174C28.6697 25.1884 30.1821 24.8796 31.6769 25.2876C32.8657 25.6121 33.8465 26.4248 34.5561 27.2198C34.9181 27.6254 35.269 28.0604 35.6015 28.5161C36.5024 27.8294 37.5587 27.2733 38.75 27.1213C39.3635 27.043 40.5131 26.9069 41.3865 27.6709C42.2752 28.4482 42.7721 29.5995 43.1319 30.4332C43.1454 30.4645 43.1587 30.4953 43.1719 30.5257C44.1956 32.8922 45.4678 35.2133 46.9624 37.279C47.4287 37.9234 47.9624 38.5149 48.5526 39.0126C48.6152 39.0654 48.6808 39.1172 48.7608 39.1802L48.7609 39.1802L48.7613 39.1806C48.8371 39.2402 48.927 39.3111 49.0161 39.3869C49.1965 39.5404 49.4067 39.7414 49.5836 40.0121L48.0766 40.9966C48.033 40.9299 47.9668 40.8575 47.8496 40.7578C47.7901 40.7072 47.7261 40.6565 47.647 40.5942L47.6374 40.5866C47.5644 40.5291 47.478 40.4611 47.392 40.3886C46.6756 39.7843 46.0445 39.0809 45.5041 38.3341C43.9213 36.1465 42.5872 33.7078 41.5198 31.2403C41.1154 30.3054 40.7598 29.5141 40.2014 29.0257C40.0096 28.8579 39.675 28.8179 38.9778 28.9068C38.1635 29.0107 37.3642 29.4172 36.5899 30.0273C36.8863 30.5364 37.1546 31.0575 37.3863 31.581C38.6385 34.4089 38.5807 38.1811 36.1572 40.5932C35.5406 41.2069 34.4416 41.905 33.3221 42.2107C32.7568 42.3651 32.1129 42.4398 31.4916 42.2895C30.8367 42.131 30.2582 41.7321 29.881 41.0526C29.0842 39.6171 29.2697 37.8002 29.7454 36.5087C30.4509 34.593 31.7168 32.8165 32.8749 31.3321C33.2773 30.8163 33.7391 30.2602 34.2552 29.7265C33.9267 29.2652 33.5762 28.825 33.2133 28.4184C32.6175 27.751 31.9189 27.2195 31.203 27.0241C30.2362 26.7602 29.1521 26.9339 28.0123 27.3891ZM35.2435 31.3041C34.9065 31.6752 34.5895 32.0606 34.294 32.4393C33.1515 33.9038 32.037 35.4947 31.4345 37.1308C31.0562 38.1578 31.01 39.3776 31.4548 40.179C31.5767 40.3986 31.7264 40.4943 31.915 40.54C32.1374 40.5938 32.4525 40.5823 32.8479 40.4743C33.6499 40.2553 34.4789 39.7239 34.8874 39.3174C36.6203 37.5926 36.7955 34.6925 35.7405 32.3098C35.5916 31.9736 35.425 31.6371 35.2435 31.3041ZM21.092 32.5335C21.0211 32.6145 20.9509 32.6961 20.8811 32.7783C20.0327 33.7784 19.2838 34.7411 18.9782 35.8131C18.7812 36.5039 18.799 37.2198 19.0003 37.6905C19.0952 37.9122 19.2187 38.0547 19.3568 38.1416C19.4912 38.2261 19.7046 38.2993 20.0553 38.2738C20.6089 38.2334 20.8385 38.1239 21.053 37.8368C21.4257 37.3381 21.6639 36.7644 21.7248 36.1709C21.8436 35.0121 21.6062 33.7303 21.092 32.5335Z" fill="#005B82"/>
<path d="M227.309 34.3571V21.5911H229.779L229.987 23.3071H230.091C230.663 22.7524 231.287 22.2757 231.963 21.8771C232.639 21.4784 233.41 21.2791 234.277 21.2791C235.646 21.2791 236.643 21.7211 237.267 22.6051C237.891 23.4891 238.203 24.7371 238.203 26.3491V34.3571H235.213V26.7391C235.213 25.6817 235.057 24.9364 234.745 24.5031C234.433 24.0697 233.922 23.8531 233.211 23.8531C232.656 23.8531 232.162 23.9917 231.729 24.2691C231.313 24.5291 230.836 24.9191 230.299 25.4391V34.3571H227.309Z" fill="white"/>
<path d="M219.643 34.6691C218.464 34.6691 217.398 34.4091 216.445 33.8891C215.492 33.3517 214.738 32.5891 214.183 31.6011C213.628 30.5957 213.351 29.3911 213.351 27.9871C213.351 26.6004 213.628 25.4044 214.183 24.3991C214.755 23.3937 215.492 22.6224 216.393 22.0851C217.294 21.5477 218.239 21.2791 219.227 21.2791C220.388 21.2791 221.359 21.5391 222.139 22.0591C222.919 22.5617 223.508 23.2724 223.907 24.1911C224.306 25.0924 224.505 26.1411 224.505 27.3371C224.505 27.9611 224.462 28.4464 224.375 28.7931H216.263C216.402 29.9197 216.809 30.7951 217.485 31.4191C218.161 32.0431 219.01 32.3551 220.033 32.3551C220.588 32.3551 221.099 32.2771 221.567 32.1211C222.052 31.9477 222.529 31.7137 222.997 31.4191L224.011 33.2911C223.404 33.6897 222.728 34.0191 221.983 34.2791C221.238 34.5391 220.458 34.6691 219.643 34.6691ZM216.237 26.7651H221.905C221.905 25.7771 221.688 25.0057 221.255 24.4511C220.822 23.8791 220.172 23.5931 219.305 23.5931C218.56 23.5931 217.892 23.8704 217.303 24.4251C216.731 24.9624 216.376 25.7424 216.237 26.7651Z" fill="white"/>
<path d="M205.579 39.9991C204.574 39.9991 203.664 39.8777 202.849 39.6351C202.052 39.3924 201.419 39.0197 200.951 38.5171C200.501 38.0317 200.275 37.4164 200.275 36.6711C200.275 35.6137 200.882 34.7037 202.095 33.9411V33.8371C201.766 33.6291 201.489 33.3517 201.263 33.0051C201.055 32.6584 200.951 32.2251 200.951 31.7051C200.951 31.2024 201.09 30.7517 201.367 30.3531C201.662 29.9371 201.991 29.5991 202.355 29.3391V29.2351C201.922 28.9057 201.532 28.4464 201.185 27.8571C200.856 27.2677 200.691 26.6004 200.691 25.8551C200.691 24.8671 200.925 24.0351 201.393 23.3591C201.861 22.6831 202.477 22.1717 203.239 21.8251C204.019 21.4611 204.851 21.2791 205.735 21.2791C206.082 21.2791 206.411 21.3137 206.723 21.3831C207.053 21.4351 207.347 21.5044 207.607 21.5911H212.183V23.8011H209.843C210.051 24.0437 210.225 24.3557 210.363 24.7371C210.502 25.1011 210.571 25.5084 210.571 25.9591C210.571 26.8951 210.355 27.6924 209.921 28.3511C209.488 28.9924 208.907 29.4777 208.179 29.8071C207.451 30.1364 206.637 30.3011 205.735 30.3011C205.458 30.3011 205.172 30.2751 204.877 30.2231C204.583 30.1711 204.288 30.0844 203.993 29.9631C203.803 30.1364 203.647 30.3097 203.525 30.4831C203.421 30.6564 203.369 30.8904 203.369 31.1851C203.369 31.5491 203.517 31.8351 203.811 32.0431C204.123 32.2511 204.669 32.3551 205.449 32.3551H207.711C209.254 32.3551 210.415 32.6064 211.195 33.1091C211.993 33.5944 212.391 34.3917 212.391 35.5011C212.391 36.3331 212.114 37.0871 211.559 37.7631C211.005 38.4564 210.216 39.0024 209.193 39.4011C208.171 39.7997 206.966 39.9991 205.579 39.9991ZM205.735 28.4291C206.342 28.4291 206.862 28.2037 207.295 27.7531C207.729 27.3024 207.945 26.6697 207.945 25.8551C207.945 25.0577 207.729 24.4424 207.295 24.0091C206.879 23.5584 206.359 23.3331 205.735 23.3331C205.111 23.3331 204.583 23.5497 204.149 23.9831C203.716 24.4164 203.499 25.0404 203.499 25.8551C203.499 26.6697 203.716 27.3024 204.149 27.7531C204.583 28.2037 205.111 28.4291 205.735 28.4291ZM206.047 38.0491C207.07 38.0491 207.902 37.8411 208.543 37.4251C209.185 37.0091 209.505 36.5324 209.505 35.9951C209.505 35.4924 209.306 35.1544 208.907 34.9811C208.526 34.8077 207.971 34.7211 207.243 34.7211H205.501C204.808 34.7211 204.227 34.6604 203.759 34.5391C203.101 35.0417 202.771 35.6051 202.771 36.2291C202.771 36.8011 203.066 37.2431 203.655 37.5551C204.245 37.8844 205.042 38.0491 206.047 38.0491Z" fill="white"/>
<path d="M192.142 34.6691C191.085 34.6691 190.097 34.4091 189.178 33.8891C188.259 33.3517 187.514 32.5891 186.942 31.6011C186.37 30.5957 186.084 29.3911 186.084 27.9871C186.084 26.5657 186.37 25.3611 186.942 24.3731C187.514 23.3677 188.259 22.6051 189.178 22.0851C190.097 21.5477 191.085 21.2791 192.142 21.2791C193.217 21.2791 194.213 21.5477 195.132 22.0851C196.051 22.6051 196.796 23.3677 197.368 24.3731C197.94 25.3611 198.226 26.5657 198.226 27.9871C198.226 29.3911 197.94 30.5957 197.368 31.6011C196.796 32.5891 196.051 33.3517 195.132 33.8891C194.213 34.4091 193.217 34.6691 192.142 34.6691ZM192.142 32.2251C193.078 32.2251 193.815 31.8351 194.352 31.0551C194.889 30.2751 195.158 29.2524 195.158 27.9871C195.158 26.7044 194.889 25.6731 194.352 24.8931C193.815 24.1131 193.078 23.7231 192.142 23.7231C191.206 23.7231 190.469 24.1131 189.932 24.8931C189.412 25.6731 189.152 26.7044 189.152 27.9871C189.152 29.2524 189.412 30.2751 189.932 31.0551C190.469 31.8351 191.206 32.2251 192.142 32.2251Z" fill="white"/>
<path d="M182.822 34.669C181.764 34.669 181.01 34.3483 180.56 33.707C180.126 33.0656 179.91 32.1903 179.91 31.081V16.001H182.9V31.237C182.9 31.601 182.969 31.861 183.108 32.017C183.246 32.1556 183.394 32.225 183.55 32.225C183.619 32.225 183.68 32.225 183.732 32.225C183.801 32.2076 183.896 32.1903 184.018 32.173L184.408 34.409C184.234 34.4783 184.009 34.539 183.732 34.591C183.472 34.643 183.168 34.669 182.822 34.669Z" fill="white"/>
<path d="M169.649 34.6691C168.54 34.6691 167.63 34.3224 166.919 33.6291C166.226 32.9357 165.879 32.0344 165.879 30.9251C165.879 29.5557 166.477 28.4984 167.673 27.7531C168.869 26.9904 170.776 26.4704 173.393 26.1931C173.376 25.5171 173.194 24.9364 172.847 24.4511C172.518 23.9484 171.92 23.6971 171.053 23.6971C170.429 23.6971 169.814 23.8184 169.207 24.0611C168.618 24.3037 168.037 24.5984 167.465 24.9451L166.373 22.9431C167.084 22.4924 167.881 22.1024 168.765 21.7731C169.667 21.4437 170.62 21.2791 171.625 21.2791C173.22 21.2791 174.407 21.7557 175.187 22.7091C175.985 23.6451 176.383 25.0057 176.383 26.7911V34.3571H173.913L173.705 32.9531H173.601C173.029 33.4384 172.414 33.8457 171.755 34.1751C171.114 34.5044 170.412 34.6691 169.649 34.6691ZM170.611 32.3291C171.131 32.3291 171.599 32.2077 172.015 31.9651C172.449 31.7051 172.908 31.3584 173.393 30.9251V28.0651C171.66 28.2904 170.455 28.6284 169.779 29.0791C169.103 29.5124 168.765 30.0497 168.765 30.6911C168.765 31.2631 168.939 31.6791 169.285 31.9391C169.632 32.1991 170.074 32.3291 170.611 32.3291Z" fill="white"/>
<path d="M162.27 34.6689C160.796 34.6689 159.748 34.2443 159.124 33.3949C158.517 32.5283 158.214 31.4103 158.214 30.0409V23.9569H156.394V21.7209L158.37 21.5909L158.734 18.1069H161.23V21.5909H164.48V23.9569H161.23V30.0409C161.23 31.5316 161.828 32.2769 163.024 32.2769C163.249 32.2769 163.483 32.2509 163.726 32.1989C163.968 32.1296 164.176 32.0603 164.35 31.9909L164.87 34.2009C164.523 34.3223 164.124 34.4263 163.674 34.5129C163.24 34.6169 162.772 34.6689 162.27 34.6689Z" fill="white"/>
<path d="M147.917 34.6691C146.808 34.6691 145.898 34.3224 145.187 33.6291C144.494 32.9357 144.147 32.0344 144.147 30.9251C144.147 29.5557 144.745 28.4984 145.941 27.7531C147.137 26.9904 149.044 26.4704 151.661 26.1931C151.644 25.5171 151.462 24.9364 151.115 24.4511C150.786 23.9484 150.188 23.6971 149.321 23.6971C148.697 23.6971 148.082 23.8184 147.475 24.0611C146.886 24.3037 146.305 24.5984 145.733 24.9451L144.641 22.9431C145.352 22.4924 146.149 22.1024 147.033 21.7731C147.935 21.4437 148.888 21.2791 149.893 21.2791C151.488 21.2791 152.675 21.7557 153.455 22.7091C154.253 23.6451 154.651 25.0057 154.651 26.7911V34.3571H152.181L151.973 32.9531H151.869C151.297 33.4384 150.682 33.8457 150.023 34.1751C149.382 34.5044 148.68 34.6691 147.917 34.6691ZM148.879 32.3291C149.399 32.3291 149.867 32.2077 150.283 31.9651C150.717 31.7051 151.176 31.3584 151.661 30.9251V28.0651C149.928 28.2904 148.723 28.6284 148.047 29.0791C147.371 29.5124 147.033 30.0497 147.033 30.6911C147.033 31.2631 147.207 31.6791 147.553 31.9391C147.9 32.1991 148.342 32.3291 148.879 32.3291Z" fill="white"/>
<path d="M131.545 34.357V16.001H134.483V27.467H134.561L139.293 21.591H142.569L138.201 26.791L143.011 34.357H139.761L136.485 28.819L134.483 31.107V34.357H131.545Z" fill="white"/>
<path d="M109.685 34.3571V21.5911H112.155L112.363 23.3331H112.467C113.004 22.7611 113.585 22.2757 114.209 21.8771C114.85 21.4784 115.57 21.2791 116.367 21.2791C117.303 21.2791 118.048 21.4871 118.603 21.9031C119.175 22.3017 119.608 22.8564 119.903 23.5671C120.51 22.9084 121.142 22.3624 121.801 21.9291C122.477 21.4957 123.214 21.2791 124.011 21.2791C125.363 21.2791 126.36 21.7211 127.001 22.6051C127.642 23.4891 127.963 24.7371 127.963 26.3491V34.3571H124.947V26.7391C124.947 25.6817 124.782 24.9364 124.453 24.5031C124.141 24.0697 123.656 23.8531 122.997 23.8531C122.2 23.8531 121.307 24.3817 120.319 25.4391V34.3571H117.329V26.7391C117.329 25.6817 117.164 24.9364 116.835 24.5031C116.523 24.0697 116.029 23.8531 115.353 23.8531C114.556 23.8531 113.663 24.3817 112.675 25.4391V34.3571H109.685Z" fill="white"/>
<path d="M99.4248 34.6691C98.3155 34.6691 97.4055 34.3224 96.6948 33.6291C96.0015 32.9357 95.6548 32.0344 95.6548 30.9251C95.6548 29.5557 96.2528 28.4984 97.4488 27.7531C98.6448 26.9904 100.551 26.4704 103.169 26.1931C103.151 25.5171 102.969 24.9364 102.623 24.4511C102.293 23.9484 101.695 23.6971 100.829 23.6971C100.205 23.6971 99.5895 23.8184 98.9828 24.0611C98.3935 24.3037 97.8128 24.5984 97.2408 24.9451L96.1488 22.9431C96.8595 22.4924 97.6568 22.1024 98.5408 21.7731C99.4421 21.4437 100.395 21.2791 101.401 21.2791C102.995 21.2791 104.183 21.7557 104.963 22.7091C105.76 23.6451 106.159 25.0057 106.159 26.7911V34.3571H103.689L103.481 32.9531H103.377C102.805 33.4384 102.189 33.8457 101.531 34.1751C100.889 34.5044 100.187 34.6691 99.4248 34.6691ZM100.387 32.3291C100.907 32.3291 101.375 32.2077 101.791 31.9651C102.224 31.7051 102.683 31.3584 103.169 30.9251V28.0651C101.435 28.2904 100.231 28.6284 99.5548 29.0791C98.8788 29.5124 98.5408 30.0497 98.5408 30.6911C98.5408 31.2631 98.7141 31.6791 99.0608 31.9391C99.4075 32.1991 99.8495 32.3291 100.387 32.3291Z" fill="white"/>
<path d="M88.9697 34.6691C87.7911 34.6691 86.7251 34.4091 85.7717 33.8891C84.8184 33.3517 84.0644 32.5891 83.5097 31.6011C82.9551 30.5957 82.6777 29.3911 82.6777 27.9871C82.6777 26.6004 82.9551 25.4044 83.5097 24.3991C84.0817 23.3937 84.8184 22.6224 85.7197 22.0851C86.6211 21.5477 87.5657 21.2791 88.5537 21.2791C89.7151 21.2791 90.6857 21.5391 91.4657 22.0591C92.2457 22.5617 92.8351 23.2724 93.2337 24.1911C93.6324 25.0924 93.8317 26.1411 93.8317 27.3371C93.8317 27.9611 93.7884 28.4464 93.7017 28.7931H85.5897C85.7284 29.9197 86.1357 30.7951 86.8117 31.4191C87.4877 32.0431 88.3371 32.3551 89.3597 32.3551C89.9144 32.3551 90.4257 32.2771 90.8937 32.1211C91.3791 31.9477 91.8557 31.7137 92.3237 31.4191L93.3377 33.2911C92.7311 33.6897 92.0551 34.0191 91.3097 34.2791C90.5644 34.5391 89.7844 34.6691 88.9697 34.6691ZM85.5637 26.7651H91.2317C91.2317 25.7771 91.0151 25.0057 90.5817 24.4511C90.1484 23.8791 89.4984 23.5931 88.6317 23.5931C87.8864 23.5931 87.2191 23.8704 86.6297 24.4251C86.0577 24.9624 85.7024 25.7424 85.5637 26.7651Z" fill="white"/>
<path d="M74.914 34.357V19.901H70V17.353H82.844V19.901H77.93V34.357H74.914Z" fill="white"/>
<path d="M241 3.70477C235.4 4.90477 231.333 8.5381 230 10.2048C234.5 19.2047 247 23.7048 249.5 22.2048C252 19.7048 250 17.7048 251.5 15.7048C252.7 14.1048 255 16.0382 256.5 17.7048C257.667 20.0382 260.5 19.2048 259.5 14.7048C258.5 10.2048 256 8.20477 253.5 5.70477C251 3.20477 248 2.20477 241 3.70477Z" fill="#DC1818" stroke="#DC1818"/>
<path fill-rule="evenodd" clip-rule="evenodd" d="M233.062 11.1187C233.074 11.1186 233.086 11.1185 233.098 11.1185C234.116 11.1185 235.538 11.5355 236.213 12.8867C236.318 13.0961 236.389 13.3066 236.439 13.5037C236.58 13.463 236.727 13.4277 236.876 13.4014C237.535 13.2853 238.779 13.2771 239.524 14.4366C239.689 14.6925 239.836 14.9814 239.952 15.2894C240.1 15.1999 240.26 15.1157 240.43 15.047C240.964 14.8304 241.725 14.7209 242.482 15.1623C243.082 15.5125 243.392 16.0579 243.557 16.4718C243.724 16.8923 243.803 17.3328 243.847 17.6912C243.873 17.8943 243.89 18.0971 243.903 18.2845C244.203 18.3159 244.565 18.4132 244.914 18.6671C245.908 19.3896 246.461 20.2965 246.795 21.2624C246.997 21.2947 247.163 21.3366 247.412 21.4615C248.718 22.1186 249.705 21.2404 249.5 23.6162C249.487 23.7618 248.672 24.4296 248.653 24.5578C248.674 24.5972 248.693 24.6385 248.712 24.6817C248.9 25.1296 248.898 25.5749 248.893 25.7817C248.889 25.936 248.871 26.0903 248.871 26.2445C248.871 28.0094 247.777 29.6582 246.644 30.6078C246.227 30.9572 245.976 31.381 245.131 31.3754C244.514 31.3713 243.589 31.1575 243.186 30.8152C243.115 30.8351 243.036 30.8583 242.949 30.8848C242.857 30.9128 242.718 30.9564 242.571 31.0028C242.377 31.0643 242.167 31.1305 242.03 31.1712C241.878 31.2164 241.712 31.2629 241.551 31.2989C241.411 31.3304 241.186 31.3754 240.944 31.3754C240.522 31.3754 240.076 31.2898 239.664 31.0508C239.245 30.8078 238.967 30.4677 238.789 30.1312C238.495 29.5754 238.44 28.9344 238.412 28.6168C238.405 28.5311 238.399 28.4648 238.393 28.4028C238.329 28.404 238.259 28.4054 238.183 28.407C238.056 28.4095 237.911 28.4125 237.745 28.4151C237.201 28.4238 236.516 28.4244 235.853 28.3473C235.227 28.2745 234.419 28.1129 233.753 27.6621C233.397 27.4212 233.057 27.0804 232.83 26.6126C232.602 26.1411 232.536 25.6336 232.586 25.1333C232.5 23.9998 232.187 25.1865 231 23.9998C230 22.9998 231.567 22.1649 229.672 22.1683C229.105 22.1693 228.389 22.1282 227.764 21.9027C227.44 21.786 227.047 21.5872 226.721 21.2325C226.483 20.9724 226.313 20.663 226.223 20.3221C226.104 20.2889 225.976 20.2474 225.84 20.1951C225.233 19.9616 224.576 19.4529 224.098 18.9549C223.844 18.6895 223.583 18.3688 223.381 18.0109C223.191 17.6746 222.974 17.1683 223.003 16.5745C223.027 16.0607 223.223 15.6349 223.395 15.3425C223.572 15.0402 223.788 14.7749 223.975 14.5648C224.208 14.3036 224.455 14.0635 224.606 13.9125C224.565 13.5462 224.596 13.1955 224.654 12.9061C224.754 12.405 225.003 11.7524 225.532 11.2851C225.637 11.1932 225.83 11.0406 226.109 10.9445C226.268 10.8894 226.465 10.8514 226.675 10.858C227.408 10.3825 228.144 9.97818 228.852 9.59138C229.707 9.12338 230.847 8.85144 231.877 9.49975C232.508 9.89733 232.865 10.5034 233.062 11.1187Z" fill="white" stroke="#DADADA" stroke-linecap="round"/>
<path fill-rule="evenodd" clip-rule="evenodd" d="M257.994 15.6845C258.105 15.657 258.463 15.5699 258.841 15.7118C259.054 15.7917 259.211 15.9107 259.3 15.9847C259.347 16.0239 259.389 16.0615 259.417 16.0875C259.429 16.0987 259.438 16.1072 259.446 16.1142C259.46 16.1271 259.468 16.1346 259.478 16.1436C259.65 16.2961 259.813 16.4592 259.965 16.628C260.184 16.5687 260.405 16.5448 260.614 16.546C260.614 16.546 260.618 16.546 260.622 16.546C260.662 16.5458 260.815 16.5451 260.969 16.5728C261.122 16.6003 261.5 16.6919 261.762 17.0591C261.975 17.3564 261.993 17.6642 261.993 17.8099C261.993 17.8876 261.987 17.9557 261.984 17.9905L261.98 18.0323C261.98 18.0362 261.979 18.0394 261.979 18.0394C261.978 18.074 261.976 18.1166 261.975 18.1655C261.968 18.3841 261.958 18.729 261.889 19.0446C261.883 19.0728 261.877 19.1011 261.87 19.1293C262.183 19.1764 262.566 19.2914 262.905 19.584C263.427 20.0345 263.432 20.6431 263.434 20.8535C263.434 20.8625 263.434 20.8708 263.434 20.8783C263.446 21.6646 263.044 22.3055 262.592 22.7211C262.146 23.1309 261.46 23.6739 260.55 23.7661C260.268 23.7948 259.921 23.8003 259.568 23.7374C259.22 23.6755 258.797 23.5345 258.441 23.2139C258.35 23.1315 258.256 23.0383 258.165 22.9313C257.741 23.1091 257.266 23.1642 256.782 23.0542C256.356 22.9573 255.706 22.631 255.481 21.9204C255.417 21.7172 255.384 21.5043 255.372 21.2956C255.246 21.2389 255.123 21.166 255.009 21.0738C254.822 20.9232 254.607 20.682 254.517 20.3312C254.423 19.9615 254.506 19.6194 254.649 19.3558C254.723 19.2203 254.764 19.1532 254.79 19.1095C254.819 19.0616 254.832 19.0416 254.851 18.9905C254.853 18.9862 254.855 18.9816 254.857 18.9767C254.891 18.8872 254.965 18.6966 255.083 18.5161C255.22 18.3074 255.453 18.052 255.83 17.9201C255.891 17.8985 255.949 17.8843 256 17.8749C255.982 17.7365 255.98 17.5852 256.007 17.4264C256.007 17.4264 256.007 17.4194 256.009 17.4077C256.009 17.4077 256.009 17.4039 256.009 17.4014C256.011 17.383 256.016 17.3445 256.021 17.3067C256.034 17.2155 256.064 17.0495 256.155 16.8681C256.292 16.5947 256.492 16.3878 256.703 16.2421C257.029 16.0166 257.379 15.8739 257.687 15.7781C257.699 15.7744 257.706 15.7721 257.718 15.7679C257.731 15.7636 257.749 15.7573 257.785 15.7454C257.836 15.7286 257.91 15.705 257.994 15.6845Z" fill="white" stroke="#DADADA" stroke-linecap="round"/>
</svg>
