<svg width="227" height="53" viewBox="0 0 227 53" fill="none" xmlns="http://www.w3.org/2000/svg">
<path d="M71.1589 34.875V22.203H66.8629V19.227H79.0069V22.203H74.7109V34.875H71.1589ZM84.6107 35.163C83.4747 35.163 82.4507 34.915 81.5387 34.419C80.6267 33.923 79.9067 33.211 79.3787 32.283C78.8507 31.355 78.5867 30.235 78.5867 28.923C78.5867 27.627 78.8507 26.515 79.3787 25.587C79.9227 24.659 80.6267 23.947 81.4907 23.451C82.3547 22.939 83.2587 22.683 84.2027 22.683C85.3387 22.683 86.2747 22.939 87.0107 23.451C87.7627 23.947 88.3227 24.627 88.6907 25.491C89.0747 26.339 89.2667 27.307 89.2667 28.395C89.2667 28.699 89.2507 29.003 89.2187 29.307C89.1867 29.595 89.1547 29.811 89.1227 29.955H81.9947C82.1547 30.819 82.5147 31.459 83.0747 31.875C83.6347 32.275 84.3067 32.475 85.0907 32.475C85.9387 32.475 86.7947 32.211 87.6587 31.683L88.8347 33.819C88.2267 34.235 87.5467 34.563 86.7947 34.803C86.0427 35.043 85.3147 35.163 84.6107 35.163ZM81.9707 27.627H86.2667C86.2667 26.971 86.1067 26.435 85.7867 26.019C85.4827 25.587 84.9787 25.371 84.2747 25.371C83.7307 25.371 83.2427 25.563 82.8107 25.947C82.3787 26.315 82.0987 26.875 81.9707 27.627ZM94.3988 35.163C93.3108 35.163 92.4468 34.819 91.8068 34.131C91.1668 33.427 90.8468 32.571 90.8468 31.563C90.8468 30.315 91.3748 29.339 92.4308 28.635C93.4868 27.931 95.1908 27.459 97.5428 27.219C97.5108 26.691 97.3508 26.275 97.0628 25.971C96.7908 25.651 96.3268 25.491 95.6708 25.491C95.1748 25.491 94.6708 25.587 94.1588 25.779C93.6468 25.971 93.1028 26.235 92.5268 26.571L91.2548 24.243C92.0068 23.779 92.8068 23.403 93.6548 23.115C94.5188 22.827 95.4148 22.683 96.3428 22.683C97.8628 22.683 99.0308 23.123 99.8468 24.003C100.663 24.883 101.071 26.235 101.071 28.059V34.875H98.1908L97.9508 33.651H97.8548C97.3588 34.099 96.8228 34.467 96.2468 34.755C95.6868 35.027 95.0708 35.163 94.3988 35.163ZM95.5988 32.427C95.9988 32.427 96.3428 32.339 96.6308 32.163C96.9348 31.971 97.2388 31.723 97.5428 31.419V29.331C96.2948 29.491 95.4308 29.747 94.9508 30.099C94.4708 30.435 94.2308 30.835 94.2308 31.299C94.2308 31.683 94.3508 31.971 94.5908 32.163C94.8468 32.339 95.1828 32.427 95.5988 32.427ZM104.007 34.875V22.971H106.887L107.127 24.507H107.223C107.719 24.011 108.247 23.587 108.807 23.235C109.367 22.867 110.039 22.683 110.823 22.683C111.671 22.683 112.351 22.859 112.863 23.211C113.391 23.547 113.807 24.035 114.111 24.675C114.639 24.131 115.199 23.667 115.791 23.283C116.383 22.883 117.071 22.683 117.855 22.683C119.135 22.683 120.071 23.115 120.663 23.979C121.271 24.827 121.575 25.995 121.575 27.483V34.875H118.047V27.939C118.047 27.075 117.927 26.483 117.687 26.163C117.463 25.843 117.095 25.683 116.583 25.683C115.991 25.683 115.311 26.067 114.543 26.835V34.875H111.015V27.939C111.015 27.075 110.895 26.483 110.655 26.163C110.431 25.843 110.063 25.683 109.551 25.683C108.959 25.683 108.287 26.067 107.535 26.835V34.875H104.007ZM124.537 34.875V18.051H127.969V27.699H128.065L131.833 22.971H135.673L131.497 27.867L135.985 34.875H132.169L129.481 30.243L127.969 31.947V34.875H124.537ZM140.403 35.163C139.315 35.163 138.451 34.819 137.811 34.131C137.171 33.427 136.851 32.571 136.851 31.563C136.851 30.315 137.379 29.339 138.435 28.635C139.491 27.931 141.195 27.459 143.547 27.219C143.515 26.691 143.355 26.275 143.067 25.971C142.795 25.651 142.331 25.491 141.675 25.491C141.179 25.491 140.675 25.587 140.163 25.779C139.651 25.971 139.107 26.235 138.531 26.571L137.259 24.243C138.011 23.779 138.811 23.403 139.659 23.115C140.523 22.827 141.419 22.683 142.347 22.683C143.867 22.683 145.035 23.123 145.851 24.003C146.667 24.883 147.075 26.235 147.075 28.059V34.875H144.195L143.955 33.651H143.859C143.363 34.099 142.827 34.467 142.251 34.755C141.691 35.027 141.075 35.163 140.403 35.163ZM141.603 32.427C142.003 32.427 142.347 32.339 142.635 32.163C142.939 31.971 143.243 31.723 143.547 31.419V29.331C142.299 29.491 141.435 29.747 140.955 30.099C140.475 30.435 140.235 30.835 140.235 31.299C140.235 31.683 140.355 31.971 140.595 32.163C140.851 32.339 141.187 32.427 141.603 32.427ZM154.174 35.163C152.702 35.163 151.646 34.739 151.006 33.891C150.382 33.043 150.07 31.931 150.07 30.555V25.731H148.438V23.115L150.262 22.971L150.67 19.803H153.598V22.971H156.454V25.731H153.598V30.507C153.598 31.179 153.734 31.667 154.006 31.971C154.294 32.259 154.67 32.403 155.134 32.403C155.326 32.403 155.518 32.379 155.71 32.331C155.918 32.283 156.102 32.227 156.262 32.163L156.814 34.731C156.51 34.827 156.134 34.923 155.686 35.019C155.254 35.115 154.75 35.163 154.174 35.163ZM161.26 35.163C160.172 35.163 159.308 34.819 158.668 34.131C158.028 33.427 157.708 32.571 157.708 31.563C157.708 30.315 158.236 29.339 159.292 28.635C160.348 27.931 162.052 27.459 164.404 27.219C164.372 26.691 164.212 26.275 163.924 25.971C163.652 25.651 163.188 25.491 162.532 25.491C162.036 25.491 161.532 25.587 161.02 25.779C160.508 25.971 159.964 26.235 159.388 26.571L158.116 24.243C158.868 23.779 159.668 23.403 160.516 23.115C161.38 22.827 162.276 22.683 163.204 22.683C164.724 22.683 165.892 23.123 166.708 24.003C167.524 24.883 167.932 26.235 167.932 28.059V34.875H165.052L164.812 33.651H164.716C164.22 34.099 163.684 34.467 163.108 34.755C162.548 35.027 161.932 35.163 161.26 35.163ZM162.46 32.427C162.86 32.427 163.204 32.339 163.492 32.163C163.796 31.971 164.1 31.723 164.404 31.419V29.331C163.156 29.491 162.292 29.747 161.812 30.099C161.332 30.435 161.092 30.835 161.092 31.299C161.092 31.683 161.212 31.971 161.452 32.163C161.708 32.339 162.044 32.427 162.46 32.427ZM174.109 35.163C172.893 35.163 172.045 34.803 171.565 34.083C171.101 33.347 170.869 32.379 170.869 31.179V18.051H174.397V31.323C174.397 31.691 174.461 31.947 174.589 32.091C174.733 32.235 174.877 32.307 175.021 32.307C175.101 32.307 175.165 32.307 175.213 32.307C175.277 32.291 175.357 32.275 175.453 32.259L175.885 34.875C175.693 34.955 175.445 35.019 175.141 35.067C174.853 35.131 174.509 35.163 174.109 35.163ZM182.8 35.163C181.792 35.163 180.84 34.923 179.944 34.443C179.064 33.947 178.352 33.235 177.808 32.307C177.264 31.363 176.992 30.235 176.992 28.923C176.992 27.595 177.264 26.467 177.808 25.539C178.352 24.611 179.064 23.907 179.944 23.427C180.84 22.931 181.792 22.683 182.8 22.683C183.808 22.683 184.752 22.931 185.632 23.427C186.512 23.907 187.224 24.611 187.768 25.539C188.312 26.467 188.584 27.595 188.584 28.923C188.584 30.235 188.312 31.363 187.768 32.307C187.224 33.235 186.512 33.947 185.632 34.443C184.752 34.923 183.808 35.163 182.8 35.163ZM182.8 32.307C183.52 32.307 184.064 32.003 184.432 31.395C184.8 30.771 184.984 29.947 184.984 28.923C184.984 27.883 184.8 27.059 184.432 26.451C184.064 25.843 183.52 25.539 182.8 25.539C182.064 25.539 181.512 25.843 181.144 26.451C180.792 27.059 180.616 27.883 180.616 28.923C180.616 29.947 180.792 30.771 181.144 31.395C181.512 32.003 182.064 32.307 182.8 32.307ZM195.2 39.939C194.272 39.939 193.432 39.835 192.68 39.627C191.928 39.419 191.328 39.091 190.88 38.643C190.432 38.195 190.208 37.619 190.208 36.915C190.208 35.955 190.776 35.155 191.912 34.515V34.419C191.608 34.211 191.344 33.947 191.12 33.627C190.912 33.307 190.808 32.899 190.808 32.403C190.808 31.971 190.936 31.555 191.192 31.155C191.448 30.755 191.768 30.427 192.152 30.171V30.075C191.736 29.787 191.36 29.371 191.024 28.827C190.704 28.283 190.544 27.667 190.544 26.979C190.544 26.019 190.776 25.227 191.24 24.603C191.704 23.963 192.312 23.483 193.064 23.163C193.816 22.843 194.616 22.683 195.464 22.683C196.168 22.683 196.784 22.779 197.312 22.971H201.656V25.539H199.76C199.872 25.715 199.96 25.939 200.024 26.211C200.104 26.483 200.144 26.779 200.144 27.099C200.144 28.011 199.936 28.763 199.52 29.355C199.104 29.947 198.544 30.387 197.84 30.675C197.136 30.963 196.344 31.107 195.464 31.107C195 31.107 194.52 31.027 194.024 30.867C193.736 31.107 193.592 31.403 193.592 31.755C193.592 32.059 193.728 32.283 194 32.427C194.272 32.571 194.736 32.643 195.392 32.643H197.312C198.784 32.643 199.904 32.883 200.672 33.363C201.456 33.827 201.848 34.595 201.848 35.667C201.848 36.483 201.576 37.211 201.032 37.851C200.488 38.507 199.72 39.019 198.728 39.387C197.736 39.755 196.56 39.939 195.2 39.939ZM195.464 28.971C195.928 28.971 196.312 28.803 196.616 28.467C196.936 28.131 197.096 27.635 197.096 26.979C197.096 26.355 196.936 25.883 196.616 25.563C196.312 25.227 195.928 25.059 195.464 25.059C195 25.059 194.608 25.219 194.288 25.539C193.984 25.859 193.832 26.339 193.832 26.979C193.832 27.635 193.984 28.131 194.288 28.467C194.608 28.803 195 28.971 195.464 28.971ZM195.752 37.731C196.552 37.731 197.208 37.587 197.72 37.299C198.232 37.011 198.488 36.667 198.488 36.267C198.488 35.899 198.328 35.651 198.008 35.523C197.704 35.395 197.256 35.331 196.664 35.331H195.44C195.04 35.331 194.704 35.315 194.432 35.283C194.176 35.267 193.952 35.235 193.76 35.187C193.328 35.571 193.112 35.963 193.112 36.363C193.112 36.811 193.352 37.147 193.832 37.371C194.328 37.611 194.968 37.731 195.752 37.731ZM208.631 35.163C207.495 35.163 206.471 34.915 205.559 34.419C204.647 33.923 203.927 33.211 203.399 32.283C202.871 31.355 202.607 30.235 202.607 28.923C202.607 27.627 202.871 26.515 203.399 25.587C203.943 24.659 204.647 23.947 205.511 23.451C206.375 22.939 207.279 22.683 208.223 22.683C209.359 22.683 210.295 22.939 211.031 23.451C211.783 23.947 212.343 24.627 212.711 25.491C213.095 26.339 213.287 27.307 213.287 28.395C213.287 28.699 213.271 29.003 213.239 29.307C213.207 29.595 213.175 29.811 213.143 29.955H206.015C206.175 30.819 206.535 31.459 207.095 31.875C207.655 32.275 208.327 32.475 209.111 32.475C209.959 32.475 210.815 32.211 211.679 31.683L212.855 33.819C212.247 34.235 211.567 34.563 210.815 34.803C210.063 35.043 209.335 35.163 208.631 35.163ZM205.991 27.627H210.287C210.287 26.971 210.127 26.435 209.807 26.019C209.503 25.587 208.999 25.371 208.295 25.371C207.751 25.371 207.263 25.563 206.831 25.947C206.399 26.315 206.119 26.875 205.991 27.627ZM215.677 34.875V22.971H218.557L218.797 24.483H218.893C219.405 24.003 219.965 23.587 220.573 23.235C221.197 22.867 221.909 22.683 222.709 22.683C224.005 22.683 224.941 23.115 225.517 23.979C226.109 24.827 226.405 25.995 226.405 27.483V34.875H222.877V27.939C222.877 27.075 222.757 26.483 222.517 26.163C222.293 25.843 221.925 25.683 221.413 25.683C220.965 25.683 220.581 25.787 220.261 25.995C219.941 26.187 219.589 26.467 219.205 26.835V34.875H215.677Z" fill="white"/>
<path d="M52 26.1646C52 40.0506 40.5953 51.3291 26.5 51.3291C12.4047 51.3291 1 40.0506 1 26.1646C1 12.2785 12.4047 1 26.5 1C40.5953 1 52 12.2785 52 26.1646Z" fill="white" stroke="white" stroke-width="2"/>
<circle cx="14.0886" cy="18.7848" r="3.6962" stroke="#005077" stroke-width="2"/>
<circle cx="26.8354" cy="18.7848" r="3.6962" stroke="#005077" stroke-width="2"/>
<circle cx="39.5822" cy="18.7848" r="3.6962" stroke="#005077" stroke-width="2"/>
<path d="M20.6861 30.031C21.5964 31.5067 22.0757 33.2565 21.9099 34.8391C21.8362 35.5425 21.5502 36.2033 21.1228 36.7632C20.7212 37.2892 20.228 37.442 19.5849 37.4879C17.6818 37.6237 17.2788 35.7097 17.717 34.205C18.057 33.0374 18.8722 32.038 19.6538 31.136C19.9851 30.7537 20.3292 30.3852 20.6861 30.031C21.5438 29.1798 22.4758 28.411 23.484 27.73C25.2837 26.5143 27.8245 25.0238 30.1143 25.6356C31.0003 25.8723 31.7814 26.4844 32.3885 27.1502C32.8991 27.7102 33.3846 28.3356 33.8182 28.9938C34.2255 29.612 34.5869 30.259 34.8803 30.9077C35.9534 33.2802 35.8451 36.3182 33.9119 38.2017C32.9583 39.1308 30.3247 40.4408 29.3962 38.8032C28.8187 37.7847 28.9265 36.4021 29.3236 35.3464C29.932 33.7293 31.0392 32.196 32.1092 30.8534C32.6014 30.2358 33.1743 29.5756 33.8182 28.9938C33.3846 28.3356 32.8991 27.7102 32.3885 27.1502C31.7814 26.4844 31.0003 25.8723 30.1143 25.6356C27.8245 25.0238 25.2837 26.5143 23.484 27.73C22.4758 28.411 21.5438 29.1798 20.6861 30.031Z" fill="white"/>
<path d="M7.37976 35.3102C7.37976 33.9735 7.65843 32.8081 8.3083 31.6179C9.51654 29.405 11.7757 27.3039 14.2966 26.7516C18.6473 25.7985 22.3278 30.85 21.9099 34.8391C21.8362 35.5425 21.5502 36.2033 21.1228 36.7632C20.7212 37.2892 20.228 37.442 19.5849 37.4879C17.6818 37.6237 17.2788 35.7097 17.717 34.205C18.057 33.0374 18.8722 32.038 19.6538 31.136C20.7813 29.8349 22.0563 28.6944 23.484 27.73C25.2837 26.5143 27.8245 25.0238 30.1143 25.6356C31.0003 25.8723 31.7814 26.4844 32.3885 27.1502C33.3786 28.2361 34.2745 29.5684 34.8803 30.9077C35.9534 33.2802 35.8451 36.3182 33.9119 38.2017C32.9583 39.1308 30.3247 40.4408 29.3962 38.8032C28.8187 37.7847 28.9265 36.4021 29.3236 35.3464C29.932 33.7293 31.0392 32.196 32.1092 30.8534C33.3119 29.3443 34.9972 27.5804 37.0203 27.3278C37.63 27.2516 38.3203 27.2079 38.8157 27.6321C39.5043 28.2217 39.9024 29.1325 40.2593 29.9403C41.2319 32.1413 42.4442 34.3085 43.8755 36.245C44.3437 36.8785 44.8855 37.468 45.4932 37.9698C45.7768 38.204 46.0861 38.3944 46.2912 38.7017" stroke="#005077" stroke-width="2"/>
</svg>
