<svg width="91" height="91" viewBox="0 0 91 91" fill="none" xmlns="http://www.w3.org/2000/svg">
    <circle cx="45.5" cy="45.5" r="45" fill="#E6F1F8" stroke="#005077"/>
    <path fill-rule="evenodd" clip-rule="evenodd" d="M59.4121 32.1325C59.4121 32.1325 59.4106 32.1296 59.4092 32.1296L56.494 29.2144C56.3583 29.0773 56.1731 29 55.9792 29H37.0208C36.8269 29 36.6417 29.0773 36.5046 29.2144L33.5879 32.1296C33.5865 32.131 33.5865 32.1325 33.585 32.1325C33.4508 32.271 33.375 32.4913 33.375 32.6458V63.2708C33.375 63.6733 33.7017 64 34.1042 64H43.5833V57.4375C43.5833 57.035 43.91 56.7083 44.3125 56.7083H48.6875C49.09 56.7083 49.4167 57.035 49.4167 57.4375V64H58.8958C59.2983 64 59.625 63.6733 59.625 63.2708V32.6458C59.625 32.4927 59.5463 32.2652 59.4121 32.1325ZM40.6667 53.7917H36.2917V49.4167H40.6667V53.7917ZM40.6667 46.5H36.2917V42.125H40.6667V46.5ZM40.6667 39.2083H36.2917V34.8333H40.6667V39.2083ZM49.4167 53.7917H43.5833V49.4167H49.4167V53.7917ZM49.4167 46.5H43.5833V42.125H49.4167V46.5ZM49.4167 39.2083H43.5833V34.8333H49.4167V39.2083ZM56.7083 53.7917H52.3333V49.4167H56.7083V53.7917ZM56.7083 46.5H52.3333V42.125H56.7083V46.5ZM56.7083 39.2083H52.3333V34.8333H56.7083V39.2083ZM35.8644 31.9167L37.3227 30.4583H55.6773L57.1356 31.9167H35.8644Z" fill="#005077"/>
</svg>
