<svg width="65" height="65" viewBox="0 0 65 65" fill="none" xmlns="http://www.w3.org/2000/svg">
<circle cx="32.5" cy="32.5" r="32" fill="white" stroke="#005077"/>
<path fill-rule="evenodd" clip-rule="evenodd" d="M41.7229 22.2375C41.7229 22.2375 41.7219 22.2354 41.7208 22.2354L39.6385 20.1531C39.5417 20.0552 39.4094 20 39.2708 20H25.7292C25.5906 20 25.4583 20.0552 25.3604 20.1531L23.2771 22.2354C23.276 22.2365 23.276 22.2375 23.275 22.2375C23.1792 22.3365 23.125 22.4937 23.125 22.6042V44.4792C23.125 44.7667 23.3583 45 23.6458 45H30.4167V40.3125C30.4167 40.025 30.65 39.7917 30.9375 39.7917H34.0625C34.35 39.7917 34.5833 40.025 34.5833 40.3125V45H41.3542C41.6417 45 41.875 44.7667 41.875 44.4792V22.6042C41.875 22.4948 41.8187 22.3323 41.7229 22.2375ZM28.3333 37.7083H25.2083V34.5833H28.3333V37.7083ZM28.3333 32.5H25.2083V29.375H28.3333V32.5ZM28.3333 27.2917H25.2083V24.1667H28.3333V27.2917ZM34.5833 37.7083H30.4167V34.5833H34.5833V37.7083ZM34.5833 32.5H30.4167V29.375H34.5833V32.5ZM34.5833 27.2917H30.4167V24.1667H34.5833V27.2917ZM39.7917 37.7083H36.6667V34.5833H39.7917V37.7083ZM39.7917 32.5H36.6667V29.375H39.7917V32.5ZM39.7917 27.2917H36.6667V24.1667H39.7917V27.2917ZM24.9031 22.0833L25.9448 21.0417H39.0552L40.0969 22.0833H24.9031Z" fill="#005077"/>
</svg>
