<svg width="65" height="65" viewBox="0 0 65 65" fill="none" xmlns="http://www.w3.org/2000/svg">
<circle cx="32.5" cy="32.5" r="32" fill="#E6F1F8" stroke="#005077"/>
<path fill-rule="evenodd" clip-rule="evenodd" d="M26.25 21.5455L26.25 18.1364C26.25 17.5088 26.7164 17 27.2917 17C27.867 17 28.3333 17.5088 28.3333 18.1364V21.5455C28.3333 22.1731 27.867 22.6818 27.2917 22.6818C26.7164 22.6818 26.25 22.1731 26.25 21.5455ZM24.1667 21.5455V20.4091L22 20.4091C20.8954 20.4091 20 21.3045 20 22.4091V28.3636H45V22.4091C45 21.3045 44.1046 20.4091 43 20.4091H40.8333V21.5455C40.8333 23.4282 39.4342 24.9545 37.7083 24.9545C35.9824 24.9545 34.5833 23.4282 34.5833 21.5455V20.4091L30.4167 20.4091V21.5455C30.4167 23.4282 29.0176 24.9545 27.2917 24.9545C25.5658 24.9545 24.1667 23.4282 24.1667 21.5455ZM20 30.6364H45V42.2727C45 43.3773 44.1046 44.2727 43 44.2727H22C20.8954 44.2727 20 43.3773 20 42.2727V30.6364ZM25.2083 32.9091C24.633 32.9091 24.1667 33.4179 24.1667 34.0455C24.1667 34.6731 24.633 35.1818 25.2083 35.1818H27.2917C27.867 35.1818 28.3333 34.6731 28.3333 34.0455C28.3333 33.4179 27.867 32.9091 27.2917 32.9091L25.2083 32.9091ZM25.2083 37.4545C24.633 37.4545 24.1667 37.9633 24.1667 38.5909C24.1667 39.2185 24.633 39.7273 25.2083 39.7273L27.2917 39.7273C27.867 39.7273 28.3333 39.2185 28.3333 38.5909C28.3333 37.9633 27.867 37.4545 27.2917 37.4545H25.2083ZM31.4583 32.9091L33.5417 32.9091C34.117 32.9091 34.5833 33.4179 34.5833 34.0455C34.5833 34.6731 34.117 35.1818 33.5417 35.1818H31.4583C30.883 35.1818 30.4167 34.6731 30.4167 34.0455C30.4167 33.4179 30.883 32.9091 31.4583 32.9091ZM33.5417 37.4545H31.4583C30.883 37.4545 30.4167 37.9633 30.4167 38.5909C30.4167 39.2185 30.883 39.7273 31.4583 39.7273L33.5417 39.7273C34.117 39.7273 34.5833 39.2185 34.5833 38.5909C34.5833 37.9633 34.117 37.4545 33.5417 37.4545ZM36.6667 34.0455C36.6667 33.4179 37.133 32.9091 37.7083 32.9091L39.7917 32.9091C40.367 32.9091 40.8333 33.4179 40.8333 34.0455C40.8333 34.6731 40.367 35.1818 39.7917 35.1818H37.7083C37.133 35.1818 36.6667 34.6731 36.6667 34.0455ZM40.8333 38.5909C40.8333 37.9633 40.367 37.4545 39.7917 37.4545H37.7083C37.133 37.4545 36.6667 37.9633 36.6667 38.5909C36.6667 39.2185 37.133 39.7273 37.7083 39.7273L39.7917 39.7273C40.367 39.7273 40.8333 39.2185 40.8333 38.5909ZM36.6667 18.1364V21.5455C36.6667 22.1731 37.133 22.6818 37.7083 22.6818C38.2836 22.6818 38.75 22.1731 38.75 21.5455V18.1364C38.75 17.5088 38.2836 17 37.7083 17C37.133 17 36.6667 17.5088 36.6667 18.1364Z" fill="#005077"/>
</svg>
