<svg width="130" height="96" viewBox="0 0 130 96" fill="none" xmlns="http://www.w3.org/2000/svg">
<path d="M129 1H64.107L1 95H129V1Z" fill="#E6F1F8" stroke="#E6F1F8"/>
<path fill-rule="evenodd" clip-rule="evenodd" d="M84.5015 38.2917C86.511 38.2917 88.1458 36.6554 88.1458 34.6458C88.1458 32.6362 86.511 31 84.5015 31C82.4919 31 80.8542 32.6362 80.8542 34.6458C80.8542 36.6554 82.4919 38.2917 84.5015 38.2917ZM76.4792 46.3125C76.4792 48.3221 74.8444 49.9583 72.8348 49.9583C70.8252 49.9583 69.1875 48.3221 69.1875 46.3125C69.1875 44.3029 70.8252 42.6667 72.8348 42.6667C74.8444 42.6667 76.4792 44.3029 76.4792 46.3125ZM69.9167 59.894C67.2333 58.8381 67 55.6298 67 52.1458V51.4167H78.6667V52.1458C78.6667 55.6283 78.4333 58.8367 75.75 59.894V66H69.9167V59.894ZM96.1681 49.9583C98.1777 49.9583 99.8125 48.3221 99.8125 46.3125C99.8125 44.3029 98.1777 42.6667 96.1681 42.6667C94.1585 42.6667 92.5208 44.3029 92.5208 46.3125C92.5208 48.3221 94.1585 49.9583 96.1681 49.9583ZM90.3333 52.1458V51.4167H102V52.1458C102 55.6283 101.767 58.8367 99.0833 59.894V66H93.25V59.894C90.5667 58.8381 90.3333 55.6298 90.3333 52.1458ZM78.6667 39.75H90.3333V40.4792C90.3333 43.9617 90.1 47.17 87.4167 48.2273V54.3333H81.5833V48.2273C78.9 47.1715 78.6667 43.9631 78.6667 40.4792V39.75Z" fill="#005077"/>
</svg>
