<svg width="130" height="96" viewBox="0 0 130 96" fill="none" xmlns="http://www.w3.org/2000/svg">
<path d="M129 1H64.107L1 95H129V1Z" fill="#E6F1F8" stroke="#E6F1F8"/>
<circle cx="85.5" cy="51.5" r="36.5" fill="white"/>
<path fill-rule="evenodd" clip-rule="evenodd" d="M85.5015 41.2917C87.511 41.2917 89.1458 39.6554 89.1458 37.6458C89.1458 35.6362 87.511 34 85.5015 34C83.4919 34 81.8542 35.6362 81.8542 37.6458C81.8542 39.6554 83.4919 41.2917 85.5015 41.2917ZM77.4792 49.3125C77.4792 51.3221 75.8444 52.9583 73.8348 52.9583C71.8252 52.9583 70.1875 51.3221 70.1875 49.3125C70.1875 47.3029 71.8252 45.6667 73.8348 45.6667C75.8444 45.6667 77.4792 47.3029 77.4792 49.3125ZM70.9167 62.894C68.2333 61.8381 68 58.6298 68 55.1458V54.4167H79.6667V55.1458C79.6667 58.6283 79.4333 61.8367 76.75 62.894V69H70.9167V62.894ZM97.1681 52.9583C99.1777 52.9583 100.812 51.3221 100.812 49.3125C100.812 47.3029 99.1777 45.6667 97.1681 45.6667C95.1585 45.6667 93.5208 47.3029 93.5208 49.3125C93.5208 51.3221 95.1585 52.9583 97.1681 52.9583ZM91.3333 55.1458V54.4167H103V55.1458C103 58.6283 102.767 61.8367 100.083 62.894V69H94.25V62.894C91.5667 61.8381 91.3333 58.6298 91.3333 55.1458ZM79.6667 42.75H91.3333V43.4792C91.3333 46.9617 91.1 50.17 88.4167 51.2273V57.3333H82.5833V51.2273C79.9 50.1715 79.6667 46.9631 79.6667 43.4792V42.75Z" fill="#005077"/>
</svg>
