<svg width="65" height="65" viewBox="0 0 65 65" fill="none" xmlns="http://www.w3.org/2000/svg">
<circle cx="32.5" cy="32.5" r="32" fill="#E6F1F8" stroke="#005077"/>
<path fill-rule="evenodd" clip-rule="evenodd" d="M42.7229 22.2375C42.7229 22.2375 42.7219 22.2354 42.7208 22.2354L40.6385 20.1531C40.5417 20.0552 40.4094 20 40.2708 20H26.7292C26.5906 20 26.4583 20.0552 26.3604 20.1531L24.2771 22.2354C24.276 22.2365 24.276 22.2375 24.275 22.2375C24.1792 22.3365 24.125 22.4937 24.125 22.6042V44.4792C24.125 44.7667 24.3583 45 24.6458 45H31.4167V40.3125C31.4167 40.025 31.65 39.7917 31.9375 39.7917H35.0625C35.35 39.7917 35.5833 40.025 35.5833 40.3125V45H42.3542C42.6417 45 42.875 44.7667 42.875 44.4792V22.6042C42.875 22.4948 42.8187 22.3323 42.7229 22.2375ZM29.3333 37.7083H26.2083V34.5833H29.3333V37.7083ZM29.3333 32.5H26.2083V29.375H29.3333V32.5ZM29.3333 27.2917H26.2083V24.1667H29.3333V27.2917ZM35.5833 37.7083H31.4167V34.5833H35.5833V37.7083ZM35.5833 32.5H31.4167V29.375H35.5833V32.5ZM35.5833 27.2917H31.4167V24.1667H35.5833V27.2917ZM40.7917 37.7083H37.6667V34.5833H40.7917V37.7083ZM40.7917 32.5H37.6667V29.375H40.7917V32.5ZM40.7917 27.2917H37.6667V24.1667H40.7917V27.2917ZM25.9031 22.0833L26.9448 21.0417H40.0552L41.0969 22.0833H25.9031Z" fill="#005077"/>
</svg>