<svg width="48" height="48" viewBox="0 0 48 48" fill="none" xmlns="http://www.w3.org/2000/svg">
<path fill-rule="evenodd" clip-rule="evenodd" d="M24 48C37.2548 48 48 37.2548 48 24C48 10.7452 37.2548 0 24 0C10.7452 0 0 10.7452 0 24C0 37.2548 10.7452 48 24 48Z" fill="#C0B2D2"/>
<mask id="mask0_955_32805" style="mask-type:alpha" maskUnits="userSpaceOnUse" x="0" y="0" width="48" height="48">
<path fill-rule="evenodd" clip-rule="evenodd" d="M24 48C37.2548 48 48 37.2548 48 24C48 10.7452 37.2548 0 24 0C10.7452 0 0 10.7452 0 24C0 37.2548 10.7452 48 24 48Z" fill="white"/>
</mask>
<g mask="url(#mask0_955_32805)">
<path fill-rule="evenodd" clip-rule="evenodd" d="M36.6764 28.2876C35.5412 31.9845 33.3187 35.0532 30.4705 36.9311L30.6163 38.5774L30.6155 38.6444L29.0758 52.2148H19.311L19.2704 51.9297L17.3826 38.621L17.4525 36.9565C14.5899 35.0835 12.3549 32.0098 11.2132 28.3031C11.1745 28.3067 11.1352 28.3086 11.0956 28.3086C10.3571 28.3086 9.77203 27.661 9.77203 26.8764V22.4368C9.77203 21.9108 10.0349 21.4462 10.4306 21.197C11.048 12.9086 16.8483 6.39453 23.9421 6.39453C31.0168 6.39453 36.8054 12.8735 37.4491 21.1297C37.9112 21.3552 38.2279 21.8588 38.2279 22.4368V26.8764C38.2279 27.6613 37.6437 28.3086 36.9044 28.3086C36.8265 28.3086 36.7503 28.3014 36.6764 28.2876Z" fill="#F1F1F1"/>
<path fill-rule="evenodd" clip-rule="evenodd" d="M30.1266 37.3905C30.071 40.354 27.3493 43.3944 24 43.3944C20.6361 43.3944 17.9053 40.3275 17.8728 37.3518C16.1299 37.7951 13.4693 39.1321 11.2733 41.3665C9.14675 43.5302 7.45587 46.7826 7.45587 49.3056V64.5H40.5441V49.3056C40.5441 46.7775 38.8168 43.5196 36.6509 41.3534C34.485 39.1872 31.8807 37.8683 30.1266 37.3905Z" fill="#005077"/>
<path fill-rule="evenodd" clip-rule="evenodd" d="M34.2736 17.3958C33.6929 16.6875 32.6969 15.3362 30.3206 14.0312C31.9412 15.3771 33.007 17.9278 33.2647 18.6797C30.6177 17.3958 29.503 16.6624 27.9706 16.0234C26.466 15.3961 25.3236 14.7042 23.0736 14.0312C23.5128 14.4526 23.952 14.9012 24.3912 15.3771C24.8304 15.8529 25.2696 16.5259 25.7089 17.3958C23.3236 16.4803 21.3472 15.7937 19.7794 15.3362C17.5212 14.6772 16.4853 14.7042 16.4853 14.7042C16.4853 14.7042 13.4118 21.3359 10.7077 21.4232C10.3525 21.5906 10.103 21.981 10.103 22.4368V26.8764C10.103 27.4851 10.5481 27.9766 11.0956 27.9766C11.217 27.9766 11.3332 27.9525 11.4406 27.9085C12.3443 31.0326 13.8766 33.2891 14.7353 34.6172C14.7353 34.6172 12.75 33.1 11.7443 31.6265C9.72531 28.6685 8.46319 25.6278 8.11768 21.3359C8.11768 7.63965 16.2569 7.18311 16.2569 7.18311C16.2569 7.18311 17.9287 4.07031 24 4.07031C34.8536 4.07031 39.7111 11.9976 39.8824 21.3359C39.8824 26.8764 36.9888 30.8189 34.5883 33.4045C33.9513 34.0906 33.2647 34.6172 33.2647 34.6172C33.2647 34.4555 33.2863 34.4173 33.4347 34.197C34.5225 32.5829 35.6373 30.7278 36.4584 27.8595C36.5926 27.9344 36.7441 27.9766 36.9044 27.9766C37.4531 27.9766 37.8971 27.4851 37.8971 26.8764V22.4368C37.8971 21.9159 37.5721 21.4805 37.1345 21.3656C37.1335 21.3504 36.4969 21.3218 35.9118 20.6719C35.3157 20.0097 35.178 18.4991 34.2736 17.3958Z" fill="#523300"/>
<path fill-rule="evenodd" clip-rule="evenodd" d="M19.2687 24.5707C18.4136 24.6401 18.1742 23.2815 18.4319 22.3942C18.4803 22.2261 18.7634 21.4604 19.2645 21.4604C19.7651 21.4604 19.9861 21.8789 20.0168 21.9509C20.385 22.8159 20.2042 24.4942 19.2687 24.5707" fill="#262626"/>
<path fill-rule="evenodd" clip-rule="evenodd" d="M29.1863 24.5707C30.0415 24.6401 30.2808 23.2815 30.0231 22.3942C29.9747 22.2261 29.6916 21.4604 29.1905 21.4604C28.6899 21.4604 28.4689 21.8789 28.4382 21.9509C28.07 22.8159 28.2509 24.4942 29.1863 24.5707" fill="#262626"/>
<path d="M24.5445 25.9096C25.0559 25.8217 25.4051 25.8769 25.5302 26.0482C26.0023 26.6961 25.8513 27.3814 25.0413 27.944C24.6155 28.2397 24.0294 28.3438 23.7191 28.1905C23.5673 28.1155 23.3899 28.1921 23.3227 28.3615C23.2556 28.5309 23.3241 28.729 23.4759 28.804C23.9887 29.0574 24.7774 28.9174 25.3587 28.5137C26.4594 27.7492 26.7112 26.6059 25.9961 25.6246C25.6935 25.21 25.1579 25.1253 24.4531 25.2465C24.2891 25.2747 24.1766 25.446 24.2019 25.6291C24.2271 25.8122 24.3805 25.9378 24.5445 25.9096Z" fill="#262626"/>
<path d="M28.2424 30.3618C28.2124 30.4256 28.1435 30.5479 28.0328 30.709C27.8455 30.9816 27.6102 31.2549 27.3244 31.5098C26.4729 32.2693 25.3645 32.7085 23.9538 32.6684C22.5784 32.6292 21.4749 32.1968 20.6098 31.4995C20.2922 31.2435 20.03 30.9693 19.8204 30.696C19.6968 30.5348 19.6196 30.4126 19.5858 30.349C19.5047 30.1958 19.3051 30.1327 19.1401 30.2081C18.9751 30.2835 18.9072 30.4688 18.9884 30.6219C19.0373 30.7142 19.1325 30.8648 19.2779 31.0545C19.5168 31.366 19.8138 31.6765 20.1733 31.9663C21.1499 32.7534 22.3979 33.2425 23.9334 33.2862C25.5324 33.3318 26.8107 32.8252 27.7858 31.9556C28.1118 31.6648 28.3798 31.3535 28.5942 31.0414C28.7246 30.8517 28.8094 30.7012 28.8527 30.6091C28.9262 30.4527 28.8493 30.2705 28.6808 30.2022C28.5122 30.1339 28.316 30.2053 28.2424 30.3618Z" fill="#262626"/>
</g>
</svg>
