<svg width="184" height="16" viewBox="0 0 184 16" fill="none" xmlns="http://www.w3.org/2000/svg">
	<path d="M18.832 11.3243L19.55 9.67545C20.3258 10.248 21.3564 10.5457 22.3755 10.5457C23.1282 10.5457 23.6029 10.2594 23.6029 9.8243C23.5913 8.6106 19.0984 9.56095 19.0636 6.51524C19.052 4.96949 20.4416 3.77869 22.4102 3.77869C23.5798 3.77869 24.7493 4.06494 25.5831 4.71759L24.9114 6.40074C24.1472 5.91984 23.1976 5.57634 22.2944 5.57634C21.6807 5.57634 21.2754 5.86259 21.2754 6.22899C21.287 7.4198 25.8147 6.76715 25.861 9.67545C25.861 11.2556 24.5062 12.3662 22.5607 12.3662C21.1364 12.3662 19.8279 12.0342 18.832 11.3243Z" fill="#F8F8F8"/>
	<path d="M46.3803 9.08005C46.0214 9.69835 45.3497 10.122 44.5739 10.122C43.4275 10.122 42.5011 9.206 42.5011 8.07245C42.5011 6.9389 43.4275 6.02289 44.5739 6.02289C45.3497 6.02289 46.0214 6.44654 46.3803 7.06485L48.3605 5.97709C47.6194 4.67179 46.1951 3.77869 44.5739 3.77869C42.1769 3.77869 40.2314 5.70229 40.2314 8.07245C40.2314 10.4426 42.1769 12.3662 44.5739 12.3662C46.2066 12.3662 47.6194 11.4846 48.3605 10.1678L46.3803 9.08005Z" fill="#F8F8F8"/>
	<path d="M29.335 0.217651H26.8569V12.2058H29.335V0.217651Z" fill="#F8F8F8"/>
	<path d="M49.3335 0.217651V12.2058H51.8116V8.61053L54.7529 12.2058H57.9257L54.1854 7.93497L57.6478 3.95036H54.6139L51.8116 7.25942V0.217651H49.3335Z" fill="#F8F8F8"/>
	<path d="M36.6996 9.10295C36.3406 9.6869 35.5995 10.122 34.7658 10.122C33.6194 10.122 32.693 9.206 32.693 8.07245C32.693 6.9389 33.6194 6.02289 34.7658 6.02289C35.5995 6.02289 36.3406 6.48089 36.6996 7.0763V9.10295ZM36.6996 3.95044V4.92369C36.2943 4.24814 35.2869 3.77869 34.2331 3.77869C32.0561 3.77869 30.3423 5.67939 30.3423 8.061C30.3423 10.4426 32.0561 12.3662 34.2331 12.3662C35.2869 12.3662 36.2943 11.8968 36.6996 11.2212V12.1945H39.1777V3.95044H36.6996Z" fill="#F8F8F8"/>
	<path d="M3.51215 9.09148C3.51215 9.92733 2.82894 10.6029 1.98362 10.6029C1.13829 10.6029 0.455078 9.92733 0.455078 9.09148C0.455078 8.25563 1.13829 7.58008 1.98362 7.58008H3.51215V9.09148Z" fill="#F8F8F8"/>
	<path d="M4.27686 9.09148C4.27686 8.25563 4.96007 7.58008 5.80539 7.58008C6.65072 7.58008 7.33393 8.25563 7.33393 9.09148V12.87C7.33393 13.7058 6.65072 14.3814 5.80539 14.3814C4.96007 14.3814 4.27686 13.7058 4.27686 12.87V9.09148Z" fill="#F8F8F8"/>
	<path d="M5.80491 3.02281C4.95958 3.02281 4.27637 2.34726 4.27637 1.5114C4.27637 0.675552 4.95958 0 5.80491 0C6.65023 0 7.33344 0.675552 7.33344 1.5114V3.02281H5.80491Z" fill="#F8F8F8"/>
	<path d="M5.80482 3.79016C6.65015 3.79016 7.33336 4.46571 7.33336 5.30157C7.33336 6.13742 6.65015 6.81297 5.80482 6.81297H1.9719C1.12657 6.81297 0.443359 6.13742 0.443359 5.30157C0.443359 4.46571 1.12657 3.79016 1.9719 3.79016H5.80482Z" fill="#F8F8F8"/>
	<path d="M11.9302 5.30157C11.9302 4.46571 12.6134 3.79016 13.4587 3.79016C14.304 3.79016 14.9873 4.46571 14.9873 5.30157C14.9873 6.13742 14.304 6.81297 13.4587 6.81297H11.9302V5.30157Z" fill="#F8F8F8"/>
	<path d="M11.1665 5.30136C11.1665 6.13722 10.4832 6.81277 9.63791 6.81277C8.79259 6.81277 8.10938 6.13722 8.10938 5.30136V1.5114C8.10938 0.675552 8.79259 0 9.63791 0C10.4832 0 11.1665 0.675552 11.1665 1.5114V5.30136Z" fill="#F8F8F8"/>
	<path d="M9.63791 11.3585C10.4832 11.3585 11.1665 12.0341 11.1665 12.8699C11.1665 13.7058 10.4832 14.3813 9.63791 14.3813C8.79259 14.3813 8.10938 13.7058 8.10938 12.8699V11.3585H9.63791Z" fill="#F8F8F8"/>
	<path d="M9.63791 10.6029C8.79259 10.6029 8.10938 9.92733 8.10938 9.09148C8.10938 8.25563 8.79259 7.58008 9.63791 7.58008H13.4708C14.3162 7.58008 14.9994 8.25563 14.9994 9.09148C14.9994 9.92733 14.3162 10.6029 13.4708 10.6029H9.63791Z" fill="#F8F8F8"/>
	<path d="M71.4033 12L71.7553 9.008H70.5713V7.504H71.9313L72.1553 5.744H70.8913V4.24H72.3473L72.6833 1.6H74.0273L73.7073 4.24H75.3713L75.7073 1.6H77.0513L76.7313 4.24H77.9953V5.744H76.5393L76.3313 7.504H77.6753V9.008H76.1553L75.7873 12H74.4273L74.7793 9.008H73.1313L72.7633 12H71.4033ZM73.3073 7.504H74.9553L75.1793 5.744H73.5153L73.3073 7.504ZM82.5765 12.192C81.5951 12.192 80.8911 11.9093 80.4645 11.344C80.0485 10.7787 79.8405 10.0373 79.8405 9.12V5.904H78.7525V4.16L79.9685 4.064L80.2405 1.952H82.1925V4.064H84.0965V5.904H82.1925V9.088C82.1925 9.536 82.2831 9.86133 82.4645 10.064C82.6565 10.256 82.9071 10.352 83.2165 10.352C83.3445 10.352 83.4725 10.336 83.6005 10.304C83.7391 10.272 83.8618 10.2347 83.9685 10.192L84.3365 11.904C84.1338 11.968 83.8831 12.032 83.5845 12.096C83.2965 12.16 82.9605 12.192 82.5765 12.192ZM88.9162 12.192C88.1589 12.192 87.4762 12.0267 86.8682 11.696C86.2602 11.3653 85.7802 10.8907 85.4282 10.272C85.0762 9.65333 84.9002 8.90667 84.9002 8.032C84.9002 7.168 85.0762 6.42667 85.4282 5.808C85.7909 5.18933 86.2602 4.71467 86.8362 4.384C87.4122 4.04267 88.0149 3.872 88.6442 3.872C89.4016 3.872 90.0256 4.04267 90.5162 4.384C91.0176 4.71467 91.3909 5.168 91.6362 5.744C91.8922 6.30933 92.0202 6.95467 92.0202 7.68C92.0202 7.88267 92.0096 8.08533 91.9882 8.288C91.9669 8.48 91.9456 8.624 91.9242 8.72H87.1722C87.2789 9.296 87.5189 9.72267 87.8922 10C88.2656 10.2667 88.7136 10.4 89.2362 10.4C89.8016 10.4 90.3722 10.224 90.9482 9.872L91.7322 11.296C91.3269 11.5733 90.8736 11.792 90.3722 11.952C89.8709 12.112 89.3856 12.192 88.9162 12.192ZM87.1562 7.168H90.0202C90.0202 6.73067 89.9136 6.37333 89.7002 6.096C89.4976 5.808 89.1616 5.664 88.6922 5.664C88.3296 5.664 88.0042 5.792 87.7162 6.048C87.4282 6.29333 87.2416 6.66667 87.1562 7.168ZM95.4736 12.192C94.7483 12.192 94.1723 11.9627 93.7456 11.504C93.3189 11.0347 93.1056 10.464 93.1056 9.792C93.1056 8.96 93.4576 8.30933 94.1616 7.84C94.8656 7.37067 96.0016 7.056 97.5696 6.896C97.5483 6.544 97.4416 6.26667 97.2496 6.064C97.0683 5.85067 96.7589 5.744 96.3216 5.744C95.9909 5.744 95.6549 5.808 95.3136 5.936C94.9723 6.064 94.6096 6.24 94.2256 6.464L93.3776 4.912C93.8789 4.60267 94.4123 4.352 94.9776 4.16C95.5536 3.968 96.1509 3.872 96.7696 3.872C97.7829 3.872 98.5616 4.16533 99.1056 4.752C99.6496 5.33867 99.9216 6.24 99.9216 7.456V12H98.0016L97.8416 11.184H97.7776C97.4469 11.4827 97.0896 11.728 96.7056 11.92C96.3323 12.1013 95.9216 12.192 95.4736 12.192ZM96.2736 10.368C96.5403 10.368 96.7696 10.3093 96.9616 10.192C97.1643 10.064 97.3669 9.89867 97.5696 9.696V8.304C96.7376 8.41067 96.1616 8.58133 95.8416 8.816C95.5216 9.04 95.3616 9.30667 95.3616 9.616C95.3616 9.872 95.4416 10.064 95.6016 10.192C95.7723 10.3093 95.9963 10.368 96.2736 10.368ZM101.911 12V4.064H103.831L103.991 5.088H104.055C104.386 4.75733 104.738 4.47467 105.111 4.24C105.484 3.99467 105.932 3.872 106.455 3.872C107.02 3.872 107.474 3.98933 107.815 4.224C108.167 4.448 108.444 4.77333 108.647 5.2C108.999 4.83733 109.372 4.528 109.767 4.272C110.162 4.00533 110.62 3.872 111.143 3.872C111.996 3.872 112.62 4.16 113.015 4.736C113.42 5.30133 113.623 6.08 113.623 7.072V12H111.271V7.376C111.271 6.8 111.191 6.40533 111.031 6.192C110.882 5.97867 110.636 5.872 110.295 5.872C109.9 5.872 109.447 6.128 108.935 6.64V12H106.583V7.376C106.583 6.8 106.503 6.40533 106.343 6.192C106.194 5.97867 105.948 5.872 105.607 5.872C105.212 5.872 104.764 6.128 104.263 6.64V12H101.911ZM115.63 12V0.783999H117.918V7.216H117.982L120.494 4.064H123.054L120.27 7.328L123.262 12H120.718L118.926 8.912L117.918 10.048V12H115.63ZM126.239 12.192C125.514 12.192 124.938 11.9627 124.511 11.504C124.085 11.0347 123.871 10.464 123.871 9.792C123.871 8.96 124.223 8.30933 124.927 7.84C125.631 7.37067 126.767 7.056 128.335 6.896C128.314 6.544 128.207 6.26667 128.015 6.064C127.834 5.85067 127.525 5.744 127.087 5.744C126.757 5.744 126.421 5.808 126.079 5.936C125.738 6.064 125.375 6.24 124.991 6.464L124.143 4.912C124.645 4.60267 125.178 4.352 125.743 4.16C126.319 3.968 126.917 3.872 127.535 3.872C128.549 3.872 129.327 4.16533 129.871 4.752C130.415 5.33867 130.687 6.24 130.687 7.456V12H128.767L128.607 11.184H128.543C128.213 11.4827 127.855 11.728 127.471 11.92C127.098 12.1013 126.687 12.192 126.239 12.192ZM127.039 10.368C127.306 10.368 127.535 10.3093 127.727 10.192C127.93 10.064 128.133 9.89867 128.335 9.696V8.304C127.503 8.41067 126.927 8.58133 126.607 8.816C126.287 9.04 126.127 9.30667 126.127 9.616C126.127 9.872 126.207 10.064 126.367 10.192C126.538 10.3093 126.762 10.368 127.039 10.368ZM135.451 12.192C134.47 12.192 133.766 11.9093 133.339 11.344C132.923 10.7787 132.715 10.0373 132.715 9.12V5.904H131.627V4.16L132.843 4.064L133.115 1.952H135.067V4.064H136.971V5.904H135.067V9.088C135.067 9.536 135.158 9.86133 135.339 10.064C135.531 10.256 135.782 10.352 136.091 10.352C136.219 10.352 136.347 10.336 136.475 10.304C136.614 10.272 136.737 10.2347 136.843 10.192L137.211 11.904C137.009 11.968 136.758 12.032 136.459 12.096C136.171 12.16 135.835 12.192 135.451 12.192ZM140.208 12.192C139.483 12.192 138.907 11.9627 138.48 11.504C138.053 11.0347 137.84 10.464 137.84 9.792C137.84 8.96 138.192 8.30933 138.896 7.84C139.6 7.37067 140.736 7.056 142.304 6.896C142.283 6.544 142.176 6.26667 141.984 6.064C141.803 5.85067 141.493 5.744 141.056 5.744C140.725 5.744 140.389 5.808 140.048 5.936C139.707 6.064 139.344 6.24 138.96 6.464L138.112 4.912C138.613 4.60267 139.147 4.352 139.712 4.16C140.288 3.968 140.885 3.872 141.504 3.872C142.517 3.872 143.296 4.16533 143.84 4.752C144.384 5.33867 144.656 6.24 144.656 7.456V12H142.736L142.576 11.184H142.512C142.181 11.4827 141.824 11.728 141.44 11.92C141.067 12.1013 140.656 12.192 140.208 12.192ZM141.008 10.368C141.275 10.368 141.504 10.3093 141.696 10.192C141.899 10.064 142.101 9.89867 142.304 9.696V8.304C141.472 8.41067 140.896 8.58133 140.576 8.816C140.256 9.04 140.096 9.30667 140.096 9.616C140.096 9.872 140.176 10.064 140.336 10.192C140.507 10.3093 140.731 10.368 141.008 10.368ZM148.805 12.192C147.995 12.192 147.429 11.952 147.109 11.472C146.8 10.9813 146.645 10.336 146.645 9.536V0.783999H148.997V9.632C148.997 9.87733 149.04 10.048 149.125 10.144C149.221 10.24 149.317 10.288 149.413 10.288C149.467 10.288 149.509 10.288 149.541 10.288C149.584 10.2773 149.637 10.2667 149.701 10.256L149.989 12C149.861 12.0533 149.696 12.096 149.493 12.128C149.301 12.1707 149.072 12.192 148.805 12.192ZM154.632 12.192C153.96 12.192 153.325 12.032 152.728 11.712C152.141 11.3813 151.666 10.9067 151.304 10.288C150.941 9.65867 150.76 8.90667 150.76 8.032C150.76 7.14667 150.941 6.39467 151.304 5.776C151.666 5.15733 152.141 4.688 152.728 4.368C153.325 4.03733 153.96 3.872 154.632 3.872C155.304 3.872 155.933 4.03733 156.52 4.368C157.106 4.688 157.581 5.15733 157.944 5.776C158.306 6.39467 158.488 7.14667 158.488 8.032C158.488 8.90667 158.306 9.65867 157.944 10.288C157.581 10.9067 157.106 11.3813 156.52 11.712C155.933 12.032 155.304 12.192 154.632 12.192ZM154.632 10.288C155.112 10.288 155.474 10.0853 155.72 9.68C155.965 9.264 156.088 8.71467 156.088 8.032C156.088 7.33867 155.965 6.78933 155.72 6.384C155.474 5.97867 155.112 5.776 154.632 5.776C154.141 5.776 153.773 5.97867 153.528 6.384C153.293 6.78933 153.176 7.33867 153.176 8.032C153.176 8.71467 153.293 9.264 153.528 9.68C153.773 10.0853 154.141 10.288 154.632 10.288ZM162.931 15.376C162.312 15.376 161.752 15.3067 161.251 15.168C160.749 15.0293 160.349 14.8107 160.051 14.512C159.752 14.2133 159.603 13.8293 159.603 13.36C159.603 12.72 159.981 12.1867 160.739 11.76V11.696C160.536 11.5573 160.36 11.3813 160.211 11.168C160.072 10.9547 160.003 10.6827 160.003 10.352C160.003 10.064 160.088 9.78667 160.259 9.52C160.429 9.25333 160.643 9.03467 160.899 8.864V8.8C160.621 8.608 160.371 8.33067 160.147 7.968C159.933 7.60533 159.827 7.19467 159.827 6.736C159.827 6.096 159.981 5.568 160.291 5.152C160.6 4.72533 161.005 4.40533 161.507 4.192C162.008 3.97867 162.541 3.872 163.107 3.872C163.576 3.872 163.987 3.936 164.339 4.064H167.235V5.776H165.971C166.045 5.89333 166.104 6.04267 166.147 6.224C166.2 6.40533 166.227 6.60267 166.227 6.816C166.227 7.424 166.088 7.92533 165.811 8.32C165.533 8.71467 165.16 9.008 164.691 9.2C164.221 9.392 163.693 9.488 163.107 9.488C162.797 9.488 162.477 9.43467 162.147 9.328C161.955 9.488 161.859 9.68533 161.859 9.92C161.859 10.1227 161.949 10.272 162.131 10.368C162.312 10.464 162.621 10.512 163.059 10.512H164.339C165.32 10.512 166.067 10.672 166.579 10.992C167.101 11.3013 167.363 11.8133 167.363 12.528C167.363 13.072 167.181 13.5573 166.819 13.984C166.456 14.4213 165.944 14.7627 165.283 15.008C164.621 15.2533 163.837 15.376 162.931 15.376ZM163.107 8.064C163.416 8.064 163.672 7.952 163.875 7.728C164.088 7.504 164.195 7.17333 164.195 6.736C164.195 6.32 164.088 6.00533 163.875 5.792C163.672 5.568 163.416 5.456 163.107 5.456C162.797 5.456 162.536 5.56267 162.323 5.776C162.12 5.98933 162.019 6.30933 162.019 6.736C162.019 7.17333 162.12 7.504 162.323 7.728C162.536 7.952 162.797 8.064 163.107 8.064ZM163.299 13.904C163.832 13.904 164.269 13.808 164.611 13.616C164.952 13.424 165.123 13.1947 165.123 12.928C165.123 12.6827 165.016 12.5173 164.803 12.432C164.6 12.3467 164.301 12.304 163.907 12.304H163.091C162.824 12.304 162.6 12.2933 162.419 12.272C162.248 12.2613 162.099 12.24 161.971 12.208C161.683 12.464 161.539 12.7253 161.539 12.992C161.539 13.2907 161.699 13.5147 162.019 13.664C162.349 13.824 162.776 13.904 163.299 13.904ZM171.916 12.192C171.159 12.192 170.476 12.0267 169.868 11.696C169.26 11.3653 168.78 10.8907 168.428 10.272C168.076 9.65333 167.9 8.90667 167.9 8.032C167.9 7.168 168.076 6.42667 168.428 5.808C168.791 5.18933 169.26 4.71467 169.836 4.384C170.412 4.04267 171.015 3.872 171.644 3.872C172.402 3.872 173.026 4.04267 173.516 4.384C174.018 4.71467 174.391 5.168 174.636 5.744C174.892 6.30933 175.02 6.95467 175.02 7.68C175.02 7.88267 175.01 8.08533 174.988 8.288C174.967 8.48 174.946 8.624 174.924 8.72H170.172C170.279 9.296 170.519 9.72267 170.892 10C171.266 10.2667 171.714 10.4 172.236 10.4C172.802 10.4 173.372 10.224 173.948 9.872L174.732 11.296C174.327 11.5733 173.874 11.792 173.372 11.952C172.871 12.112 172.386 12.192 171.916 12.192ZM170.156 7.168H173.02C173.02 6.73067 172.914 6.37333 172.7 6.096C172.498 5.808 172.162 5.664 171.692 5.664C171.33 5.664 171.004 5.792 170.716 6.048C170.428 6.29333 170.242 6.66667 170.156 7.168ZM176.645 12V4.064H178.565L178.725 5.072H178.789C179.131 4.752 179.504 4.47467 179.909 4.24C180.325 3.99467 180.8 3.872 181.333 3.872C182.197 3.872 182.821 4.16 183.205 4.736C183.6 5.30133 183.797 6.08 183.797 7.072V12H181.445V7.376C181.445 6.8 181.365 6.40533 181.205 6.192C181.056 5.97867 180.811 5.872 180.469 5.872C180.171 5.872 179.915 5.94133 179.701 6.08C179.488 6.208 179.253 6.39467 178.997 6.64V12H176.645Z" fill="white"/>
</svg>
