<svg width="65" height="65" viewBox="0 0 65 65" fill="none" xmlns="http://www.w3.org/2000/svg">
<circle cx="32.5" cy="32.5" r="32" fill="#E6F1F8" stroke="#005077"/>
<path d="M24.2701 36.7332C24.2701 38.1797 23.0967 39.3488 21.6448 39.3488C20.193 39.3488 19.0195 38.1797 19.0195 36.7332C19.0195 35.2867 20.193 34.1177 21.6448 34.1177H24.2701V36.7332Z" fill="#005077"/>
<path d="M25.583 36.7332C25.583 35.2867 26.7564 34.1176 28.2083 34.1176C29.6601 34.1176 30.8336 35.2867 30.8336 36.7332V43.2721C30.8336 44.7185 29.6601 45.8876 28.2083 45.8876C26.7564 45.8876 25.583 44.7185 25.583 43.2721V36.7332Z" fill="#005077"/>
<path d="M28.2083 26.2312C26.7564 26.2312 25.583 25.0622 25.583 23.6157C25.583 22.1692 26.7564 21.0001 28.2083 21.0001C29.6601 21.0001 30.8336 22.1692 30.8336 23.6157V26.2312H28.2083Z" fill="#005077"/>
<path d="M28.2084 27.559C29.6602 27.559 30.8336 28.7281 30.8336 30.1746C30.8336 31.6211 29.6602 32.7901 28.2084 32.7901H21.6253C20.1734 32.7901 19 31.6211 19 30.1746C19 28.7281 20.1734 27.559 21.6253 27.559H28.2084Z" fill="#005077"/>
<path d="M38.7295 30.1747C38.7295 28.7282 39.9029 27.5591 41.3548 27.5591C42.8066 27.5591 43.98 28.7282 43.98 30.1747C43.98 31.6212 42.8066 32.7903 41.3548 32.7903H38.7295V30.1747Z" fill="#005077"/>
<path d="M37.4175 30.1744C37.4175 31.6209 36.2441 32.7899 34.7923 32.7899C33.3404 32.7899 32.167 31.6209 32.167 30.1744V23.6157C32.167 22.1692 33.3404 21.0001 34.7923 21.0001C36.2441 21.0001 37.4175 22.1692 37.4175 23.6157V30.1744Z" fill="#005077"/>
<path d="M34.7913 40.6564C36.2432 40.6564 37.4166 41.8255 37.4166 43.272C37.4166 44.7185 36.2432 45.8875 34.7913 45.8875C33.3394 45.8875 32.166 44.7185 32.166 43.272V40.6564H34.7913Z" fill="#005077"/>
<path d="M34.7913 39.3488C33.3394 39.3488 32.166 38.1797 32.166 36.7332C32.166 35.2867 33.3394 34.1177 34.7913 34.1177H41.3744C42.8262 34.1177 43.9997 35.2867 43.9997 36.7332C43.9997 38.1797 42.8262 39.3488 41.3744 39.3488H34.7913Z" fill="#005077"/>
</svg>