<svg width="75" height="75" viewBox="0 0 75 75" fill="none" xmlns="http://www.w3.org/2000/svg">
<circle cx="37.5" cy="37.5" r="37.5" fill="white"/>
<path fill-rule="evenodd" clip-rule="evenodd" d="M37.0013 30.25C38.7237 30.25 40.125 28.8475 40.125 27.125C40.125 25.4025 38.7237 24 37.0013 24C35.2787 24 33.875 25.4025 33.875 27.125C33.875 28.8475 35.2787 30.25 37.0013 30.25ZM30.125 37.125C30.125 38.8475 28.7237 40.25 27.0012 40.25C25.2787 40.25 23.875 38.8475 23.875 37.125C23.875 35.4025 25.2787 34 27.0012 34C28.7237 34 30.125 35.4025 30.125 37.125ZM24.5 48.7663C22.2 47.8612 22 45.1112 22 42.125V41.5H32V42.125C32 45.11 31.8 47.86 29.5 48.7663V54H24.5V48.7663ZM47.0012 40.25C48.7237 40.25 50.125 38.8475 50.125 37.125C50.125 35.4025 48.7237 34 47.0012 34C45.2787 34 43.875 35.4025 43.875 37.125C43.875 38.8475 45.2787 40.25 47.0012 40.25ZM42 42.125V41.5H52V42.125C52 45.11 51.8 47.86 49.5 48.7663V54H44.5V48.7663C42.2 47.8612 42 45.1112 42 42.125ZM32 31.5H42V32.125C42 35.11 41.8 37.86 39.5 38.7663V44H34.5V38.7663C32.2 37.8612 32 35.1112 32 32.125V31.5Z" fill="#005077"/>
</svg>
